<svg width="32" height="32" viewBox="0 0 32 32" fill="none" xmlns="http://www.w3.org/2000/svg">
<path d="M0 8C0 3.58172 3.58172 0 8 0H24C28.4183 0 32 3.58172 32 8V24C32 28.4183 28.4183 32 24 32H8C3.58172 32 0 28.4183 0 24V8Z" fill="url(#paint0_linear_11803_177535)"/>
<path d="M18 19C18 19.5523 18.4477 20 19 20C19.5523 20 20 19.5523 20 19V10C20 8.89543 20.8954 8 22 8C23.1046 8 24 8.89543 24 10V19C24 21.7614 21.7614 24 19 24C16.2386 24 14 21.7614 14 19V13C14 12.4477 13.5523 12 13 12C12.4477 12 12 12.4477 12 13V22C12 23.1046 11.1046 24 10 24C8.89543 24 8 23.1046 8 22V13C8 10.2386 10.2386 8 13 8C15.7614 8 18 10.2386 18 13V19Z" fill="white"/>
<defs>
<linearGradient id="paint0_linear_11803_177535" x1="2.33333" y1="2.33333" x2="29.6667" y2="29.3333" gradientUnits="userSpaceOnUse">
<stop offset="0.240385" stop-color="#2D6CE1"/>
<stop offset="1" stop-color="#0F44A6"/>
</linearGradient>
</defs>
</svg>
