<svg width="20" height="20" viewBox="0 0 20 20" fill="none" xmlns="http://www.w3.org/2000/svg">
<path d="M8 10V9.5C8 9.22386 8.22386 9 8.5 9C8.77614 9 9 9.22386 9 9.5V10C9 10.5523 9.44772 11 10 11H10.5C10.7761 11 11 11.2239 11 11.5C11 11.7761 10.7761 12 10.5 12H10C8.89543 12 8 11.1046 8 10ZM15.5 11C15.7761 11 16 11.2239 16 11.5C16 11.7761 15.7761 12 15.5 12H12.5C12.2239 12 12 11.7761 12 11.5C12 11.2239 12.2239 11 12.5 11H15.5ZM19 10V9.5C19 9.22386 19.2239 9 19.5 9C19.7761 9 20 9.22386 20 9.5V10C20 11.1046 19.1046 12 18 12H17.5C17.2239 12 17 11.7761 17 11.5C17 11.2239 17.2239 11 17.5 11H18C18.5523 11 19 10.5523 19 10ZM8.00488 7.50488V4.50488C8.00495 4.22884 8.22884 4.00495 8.50488 4.00488C8.78098 4.00488 9.00482 4.2288 9.00488 4.50488V7.50488C9.00488 7.78103 8.78103 8.00488 8.50488 8.00488C8.2288 8.00482 8.00488 7.78098 8.00488 7.50488ZM19 7.50488V4.50488C19.0001 4.2288 19.2239 4.00488 19.5 4.00488C19.7761 4.00488 19.9999 4.2288 20 4.50488V7.50488C20 7.78103 19.7761 8.00488 19.5 8.00488C19.2239 8.00488 19 7.78103 19 7.50488ZM8 2.5V2C8 0.895431 8.89543 8.9407e-08 10 0H10.5C10.7761 3.46237e-08 11 0.223858 11 0.5C11 0.776142 10.7761 1 10.5 1H10C9.44772 1 9 1.44772 9 2V2.5C9 2.77614 8.77614 3 8.5 3C8.22386 3 8 2.77614 8 2.5ZM19 2.5V2C19 1.44772 18.5523 1 18 1H17.5C17.2239 1 17 0.776142 17 0.5C17 0.223858 17.2239 0 17.5 0H18C19.1046 1.98102e-07 20 0.89543 20 2V2.5C20 2.77614 19.7761 3 19.5 3C19.2239 3 19 2.77614 19 2.5ZM15.5 0C15.7761 0 16 0.223858 16 0.5C16 0.776142 15.7761 1 15.5 1H12.5C12.2239 1 12 0.776142 12 0.5C12 0.223858 12.2239 0 12.5 0H15.5Z" fill="#F7FAFF"/>
<rect y="4" width="10" height="10" rx="2" fill="#93BDFF"/>
<path d="M5.28906 9.05372C5.46517 8.96778 5.67624 8.98536 5.83496 9.10353L12.79 14.2578C12.9704 14.391 13.0443 14.6225 12.9727 14.833C12.9009 15.0434 12.7013 15.1854 12.4775 15.1856H8.97266L11.0312 19.2529C11.1615 19.5085 11.0574 19.8154 10.7988 19.9443C10.5402 20.0732 10.227 19.9703 10.0986 19.7149L8.04199 15.6475L5.93945 18.419C5.80465 18.5973 5.56952 18.6705 5.35645 18.5996C5.14342 18.5287 5 18.3306 5 18.1094V9.51563C5.00007 9.3202 5.11302 9.13964 5.28906 9.05372Z" fill="#063384"/>
</svg>
