<?xml version="1.0" encoding="UTF-8"?>
<svg id="Layer_2" data-name="Layer 2" xmlns="http://www.w3.org/2000/svg" viewBox="0 0 16 16">
  <defs>
    <style>
      .cls-1 {
        fill: #a566f3;
      }

      .cls-2 {
        fill: none;
      }

      .cls-3 {
        fill: #6d35e1;
      }

      .cls-4 {
        fill: #c18cf6;
      }

      .cls-5 {
        fill: #8b4af1;
      }

      .cls-6 {
        fill: #3f2683;
      }
    </style>
  </defs>
  <g id="Layer_1-2" data-name="Layer 1">
    <g>
      <rect class="cls-2" width="16" height="16"/>
      <g id="Logo_Vertical" data-name="Logo Vertical">
        <g id="Logo_Vertical-2" data-name="Logo Vertical">
          <g id="Logo">
            <g id="Logo-2" data-name="Logo">
              <path class="cls-6" d="M.58,1.7h1.15c.32,0,.58.26.58.58v1.15c0,.32-.26.58-.58.58H.58C.26,4.01,0,3.75,0,3.43v-1.15C0,1.96.26,1.7.58,1.7Z"/>
              <path class="cls-6" d="M.58,5.13h1.15c.32,0,.58.26.58.58v1.15c0,.32-.26.58-.58.58H.58C.26,7.44,0,7.18,0,6.86v-1.15c0-.32.26-.58.58-.58Z"/>
              <rect id="Squircle" class="cls-6" y="8.56" width="2.3" height="2.3" rx=".58" ry=".58"/>
              <rect id="Squircle-2" data-name="Squircle" class="cls-6" y="11.99" width="2.3" height="2.3" rx=".58" ry=".58"/>
              <path class="cls-3" d="M4,5.13h1.15c.32,0,.58.26.58.58v1.15c0,.32-.26.58-.58.58h-1.15c-.32,0-.58-.26-.58-.58v-1.15c0-.32.26-.58.58-.58Z"/>
              <rect class="cls-3" x="3.42" y="8.56" width="2.3" height="2.3" rx=".58" ry=".58"/>
              <rect class="cls-3" x="3.42" y="11.99" width="2.3" height="2.3" rx=".58" ry=".58"/>
              <rect class="cls-5" x="6.85" y="8.56" width="2.3" height="2.3" rx=".58" ry=".58"/>
              <rect class="cls-5" x="6.85" y="11.99" width="2.3" height="2.3" rx=".58" ry=".58"/>
              <path class="cls-1" d="M10.85,5.13h1.15c.32,0,.58.26.58.58v1.15c0,.32-.26.58-.58.58h-1.15c-.32,0-.58-.26-.58-.58v-1.15c0-.32.26-.58.58-.58Z"/>
              <rect class="cls-1" x="10.27" y="8.56" width="2.3" height="2.3" rx=".58" ry=".58"/>
              <rect class="cls-1" x="10.27" y="11.99" width="2.3" height="2.3" rx=".58" ry=".58"/>
              <path class="cls-4" d="M14.27,1.7h1.15c.32,0,.58.26.58.58v1.15c0,.32-.26.58-.58.58h-1.15c-.32,0-.58-.26-.58-.58v-1.15c0-.32.26-.58.58-.58Z"/>
              <path class="cls-4" d="M14.27,5.13h1.15c.32,0,.58.26.58.58v1.15c0,.32-.26.58-.58.58h-1.15c-.32,0-.58-.26-.58-.58v-1.15c0-.32.26-.58.58-.58Z"/>
              <path class="cls-4" d="M14.27,8.56h1.15c.32,0,.58.26.58.58v1.15c0,.32-.26.58-.58.58h-1.15c-.32,0-.58-.26-.58-.58v-1.15c0-.32.26-.58.58-.58Z"/>
              <path class="cls-4" d="M14.27,11.99h1.15c.32,0,.58.26.58.58v1.15c0,.32-.26.58-.58.58h-1.15c-.32,0-.58-.26-.58-.58v-1.15c0-.32.26-.58.58-.58Z"/>
            </g>
          </g>
        </g>
      </g>
    </g>
  </g>
</svg>