<?xml version="1.0" encoding="UTF-8"?>
<svg id="Layer_2" xmlns="http://www.w3.org/2000/svg" viewBox="0 0 240 240">
  <defs>
    <style>
      .cls-1 {
        fill: #552eb1;
      }

      .cls-2 {
        fill: #a566f3;
      }

      .cls-3 {
        fill: none;
      }

      .cls-4 {
        fill: #d5aaf8;
      }

      .cls-5 {
        fill: #8b4af1;
      }

      .cls-6 {
        fill: #3f2683;
      }
    </style>
  </defs>
  <g id="Layer_1-2" data-name="Layer_1">
    <g id="Logo__x28_no_name_x29_">
      <g id="Logo__x28_no_name_x29_-2" data-name="Logo__x28_no_name_x29_">
        <rect id="invicible_box" class="cls-3" width="240" height="240"/>
        <g>
          <rect class="cls-6" x="39.99" y="57.42" width="22.86" height="22.86" rx="5.78" ry="5.78"/>
          <rect class="cls-6" x="39.99" y="91.71" width="22.86" height="22.86" rx="5.78" ry="5.78"/>
          <rect class="cls-6" x="39.99" y="125.43" width="22.86" height="22.86" rx="5.78" ry="5.78"/>
          <rect class="cls-6" x="39.99" y="159.72" width="22.86" height="22.86" rx="5.78" ry="5.78"/>
          <rect class="cls-1" x="74.28" y="91.71" width="22.86" height="22.86" rx="5.78" ry="5.78"/>
          <rect class="cls-1" x="74.28" y="125.43" width="22.86" height="22.86" rx="5.78" ry="5.78"/>
          <rect class="cls-1" x="74.28" y="159.72" width="22.86" height="22.86" rx="5.78" ry="5.78"/>
          <rect class="cls-5" x="108.57" y="125.43" width="22.86" height="22.86" rx="5.78" ry="5.78"/>
          <rect class="cls-5" x="108.57" y="159.72" width="22.86" height="22.86" rx="5.78" ry="5.78"/>
          <rect class="cls-2" x="142.86" y="91.71" width="22.86" height="22.86" rx="5.78" ry="5.78"/>
          <rect class="cls-2" x="142.86" y="125.43" width="22.86" height="22.86" rx="5.78" ry="5.78"/>
          <rect class="cls-2" x="142.86" y="159.72" width="22.86" height="22.86" rx="5.78" ry="5.78"/>
          <rect class="cls-4" x="177.15" y="57.42" width="22.86" height="22.86" rx="5.78" ry="5.78"/>
          <rect class="cls-4" x="177.15" y="91.71" width="22.86" height="22.86" rx="5.78" ry="5.78"/>
          <rect class="cls-4" x="177.15" y="125.43" width="22.86" height="22.86" rx="5.78" ry="5.78"/>
          <rect class="cls-4" x="177.15" y="159.72" width="22.86" height="22.86" rx="5.78" ry="5.78"/>
        </g>
      </g>
    </g>
  </g>
</svg>