<?xml version="1.0" encoding="UTF-8"?>
<svg id="Layer_1" data-name="Layer 1" xmlns="http://www.w3.org/2000/svg" viewBox="0 0 435.7 80.1">
  <defs>
    <style>
      .cls-1 {
        fill: #c63c66;
      }

      .cls-2 {
        fill: #e24747;
      }

      .cls-3 {
        fill: #449be2;
      }

      .cls-4 {
        fill: #507ed1;
      }

      .cls-5 {
        fill: #8c52b2;
      }

      .cls-6 {
        fill: #313a44;
      }
    </style>
  </defs>
  <g id="Multisoft_Logo_Horizontal" data-name="Multisoft Logo Horizontal">
    <g id="squaricles">
      <path id="squaricle" class="cls-3" d="M3.7,0h7.3c2,0,3.7,1.6,3.7,3.7v7.3c0,2-1.6,3.7-3.7,3.7H3.7c-2.1-.1-3.7-1.7-3.7-3.7V3.7C0,1.6,1.6,0,3.7,0Z"/>
      <path id="squaricle-2" class="cls-3" d="M3.7,21.8h7.3c2,0,3.7,1.6,3.7,3.7v7.3c0,2-1.6,3.7-3.7,3.7H3.7c-2,0-3.7-1.6-3.7-3.7v-7.3c0-2.1,1.6-3.7,3.7-3.7Z"/>
      <path id="squaricle-3" class="cls-3" d="M3.7,43.6h7.3c2,0,3.7,1.6,3.7,3.7v7.3c0,2-1.6,3.7-3.7,3.7H3.7c-2,0-3.7-1.6-3.7-3.7v-7.3c0-2.1,1.6-3.7,3.7-3.7Z"/>
      <path id="squaricle-4" class="cls-3" d="M3.7,65.4h7.3c2,0,3.7,1.6,3.7,3.7v7.3c0,2-1.6,3.7-3.7,3.7H3.7c-2,0-3.7-1.6-3.7-3.7v-7.4c0-2,1.6-3.6,3.7-3.6Z"/>
      <path id="squaricle-5" class="cls-4" d="M25.4,21.8h7.3c2,0,3.7,1.6,3.7,3.7v7.3c0,2-1.6,3.7-3.7,3.7h-7.3c-2,0-3.7-1.6-3.7-3.7v-7.3c.1-2.1,1.7-3.7,3.7-3.7Z"/>
      <path id="squaricle-6" class="cls-4" d="M25.4,43.6h7.3c2,0,3.7,1.6,3.7,3.7v7.3c0,2-1.6,3.7-3.7,3.7h-7.3c-2,0-3.7-1.6-3.7-3.7v-7.3c.1-2.1,1.7-3.7,3.7-3.7Z"/>
      <path id="squaricle-7" class="cls-4" d="M25.4,65.4h7.3c2,0,3.7,1.6,3.7,3.7v7.3c0,2-1.6,3.7-3.7,3.7h-7.3c-2,0-3.7-1.6-3.7-3.7v-7.4c.1-2,1.7-3.6,3.7-3.6Z"/>
      <path id="squaricle-8" class="cls-5" d="M47.2,43.6h7.3c2,0,3.7,1.6,3.7,3.7v7.3c0,2-1.6,3.7-3.7,3.7h-7.3c-2,0-3.7-1.6-3.7-3.7v-7.3c0-2.1,1.6-3.7,3.7-3.7Z"/>
      <path id="squaricle-9" class="cls-5" d="M47.2,65.4h7.3c2,0,3.7,1.6,3.7,3.7v7.3c0,2-1.6,3.7-3.7,3.7h-7.3c-2,0-3.7-1.6-3.7-3.7v-7.4c0-2,1.6-3.6,3.7-3.6Z"/>
      <path id="squaricle-10" class="cls-1" d="M68.9,21.8h7.3c2,0,3.7,1.6,3.7,3.7v7.3c0,2-1.6,3.7-3.7,3.7h-7.3c-2,0-3.7-1.6-3.7-3.7v-7.3c0-2.1,1.7-3.7,3.7-3.7Z"/>
      <path id="squaricle-11" class="cls-1" d="M68.9,43.6h7.3c2,0,3.7,1.6,3.7,3.7v7.3c0,2-1.6,3.7-3.7,3.7h-7.3c-2,0-3.7-1.6-3.7-3.7v-7.3c0-2.1,1.7-3.7,3.7-3.7Z"/>
      <path id="squaricle-12" class="cls-1" d="M68.9,65.4h7.3c2,0,3.7,1.6,3.7,3.7v7.3c0,2-1.6,3.7-3.7,3.7h-7.3c-2,0-3.7-1.6-3.7-3.7v-7.4c0-2,1.7-3.6,3.7-3.6Z"/>
      <path id="squaricle-13" class="cls-2" d="M90.7,0h7.3c2,0,3.7,1.6,3.7,3.7v7.3c0,2-1.6,3.7-3.7,3.7h-7.3c-2,0-3.7-1.6-3.7-3.7V3.7c0-2.1,1.6-3.7,3.7-3.7Z"/>
      <path id="squaricle-14" class="cls-2" d="M90.7,21.8h7.3c2,0,3.7,1.6,3.7,3.7v7.3c0,2-1.6,3.7-3.7,3.7h-7.3c-2,0-3.7-1.6-3.7-3.7v-7.3c0-2.1,1.6-3.7,3.7-3.7Z"/>
      <path id="squaricle-15" class="cls-2" d="M90.7,43.6h7.3c2,0,3.7,1.6,3.7,3.7v7.3c0,2-1.6,3.7-3.7,3.7h-7.3c-2,0-3.7-1.6-3.7-3.7v-7.3c0-2.1,1.6-3.7,3.7-3.7Z"/>
      <path id="squaricle-16" class="cls-2" d="M90.7,65.4h7.3c2,0,3.7,1.6,3.7,3.7v7.3c0,2-1.6,3.7-3.7,3.7h-7.3c-2,0-3.7-1.6-3.7-3.7v-7.4c0-2,1.6-3.6,3.7-3.6Z"/>
    </g>
    <path id="wordmark" class="cls-6" d="M138.8,69.2h-.2l-13.5-19.8v29.9h-4.1v-37h4.2l13.5,20.2,13.5-20.2h4.2v37h-4.2v-30l-13.4,19.9h0ZM196.2,63.5c0,10.8-6.2,16.4-15.4,16.4s-15.4-5.6-15.4-16.1v-21.5h4.2v21.3c0,8,4.2,12.5,11.3,12.5s11.1-4.1,11.1-12.2v-21.6h4.2v21.2h0ZM205,42.3h4.2v33.2h20.8v3.9h-25v-37.1ZM246.4,79.4h-4.2v-33.2h-12.4v-3.9h29.1v3.9h-12.4l-.1,33.2h0ZM271.2,42.3v37h-4.2v-37s4.2,0,4.2,0ZM295.4,58.8c8.2,1.8,12.1,4.8,12.1,10.5,0,6.4-5.3,10.5-12.6,10.5-5.9,0-10.7-2-15.1-5.9l2.6-3.1c3.9,3.5,7.6,5.2,12.7,5.2s8.2-2.6,8.2-6.3c0-3.5-1.9-5.4-9.6-7.1-8.5-1.8-12.4-4.6-12.4-10.7s5.1-10.2,12.2-10.2c5.4,0,9.2,1.5,13,4.5l-2.4,3.2c-3.4-2.8-6.9-4-10.7-4-4.8,0-7.9,2.6-7.9,6s1.7,5.7,9.9,7.4h0ZM332.1,80c-11.3,0-18.8-8.8-18.8-19.1s7.7-19.2,18.9-19.2,18.8,8.8,18.8,19.1-7.7,19.2-18.9,19.2ZM332.1,45.6c-8.5,0-14.5,6.8-14.5,15.2s6.1,15.3,14.6,15.3,14.5-6.8,14.5-15.2-6.2-15.3-14.6-15.3ZM385.4,46.2h-22.4v13.2h20v3.8h-20v16.1h-4.2v-37h26.6v3.9ZM407.5,79.4h-4.2v-33.2h-12.4v-3.9h29.1v3.9h-12.4l-.1,33.2h0ZM426.3,37c0-.7.1-1.3.4-1.8.2-.6.6-1.1,1-1.5s.9-.7,1.5-1,1.1-.3,1.8-.3,1.2.1,1.8.3c.6.2,1,.6,1.5,1s.8.9,1,1.5.4,1.2.4,1.8-.1,1.3-.4,1.8c-.2.6-.6,1-1,1.5s-.9.7-1.5,1-1.1.3-1.8.3-1.2-.1-1.8-.3-1-.6-1.5-1-.8-.9-1-1.5c-.2-.5-.4-1.1-.4-1.8ZM427.1,37c0,.6.1,1.1.3,1.6.2.5.5.9.8,1.2s.7.6,1.2.8,1,.3,1.5.3,1-.1,1.5-.3.9-.5,1.2-.8c.3-.3.6-.8.8-1.2.2-.5.3-1,.3-1.6s-.1-1.1-.3-1.6c-.2-.5-.5-.9-.8-1.3-.3-.3-.8-.6-1.2-.8s-1-.3-1.5-.3-1,.1-1.5.3-.9.5-1.2.8-.6.8-.8,1.3c-.2.6-.3,1.1-.3,1.6ZM429.2,34.3h2c1.3,0,1.9.5,1.9,1.5,0,.5-.1.8-.4,1.1-.3.2-.6.4-1,.4l1.5,2.4h-.9l-1.5-2.3h-.8v2.3h-.8c0,.1,0-5.4,0-5.4ZM430,36.8h1.4c.1,0,.3,0,.5-.1s.2-.2.3-.3c.1-.1.1-.3.1-.5s0-.3-.1-.4-.2-.2-.3-.2c-.1-.1-.2-.1-.4-.1h-1.5c0-.2,0,1.6,0,1.6Z"/>
  </g>
</svg>