<?xml version="1.0" encoding="UTF-8"?>
<svg id="Layer_2" data-name="Layer 2" xmlns="http://www.w3.org/2000/svg" viewBox="0 0 145.63 216">
  <defs>
    <style>
      .cls-1 {
        fill: #2d2d2d;
      }

      .cls-2 {
        fill: #fff;
      }

      .cls-3 {
        fill: #adbdd1;
      }

      .cls-4 {
        fill: #404c5b;
      }

      .cls-5 {
        fill: #4d86e5;
      }

      .cls-6 {
        fill: #eef1f5;
      }

      .cls-7 {
        fill: #ccd5e2;
      }

      .cls-8 {
        fill: #313a44;
      }
    </style>
  </defs>
  <g id="Layer_1-2" data-name="Layer 1">
    <g>
      <g>
        <g>
          <path class="cls-7" d="M48.64,164.03l69.09,28.58-.21,5.35h0c-.06,1.14-.7,2.17-1.7,2.74l-21.72,12.33c-6.91,3.95-15.4,3.95-22.32,0l-27.7-15.83c-2.63-1.5-3.93-4.56-3.2-7.5l6.63-26.53,1.12.84Z"/>
          <path class="cls-6" d="M48.01,194.96l23.76,13.58c6.91,3.95,15.4,3.95,22.32,0l21.37-12.21c3.02-1.73,3.02-6.08,0-7.81l-26.61-15.2c-3.5-2-5.24-6.08-4.26-9.99l6.22-24.88-39.36,22.49-6.63,26.53c-.73,2.93.57,5.99,3.2,7.49Z"/>
        </g>
        <path class="cls-3" d="M87.9,172.68l-39.44,22.53-.45-.26c-2.63-1.5-3.93-4.56-3.2-7.5l6.63-26.53,39.36-22.49-6.22,24.88c-.89,3.54.46,7.21,3.31,9.36Z"/>
        <path class="cls-3" d="M143.41,2.87l-3.87-2.21c-1.32-.8-3.04-.94-4.57-.07L4.53,75.13c-2.8,1.6-4.53,4.58-4.53,7.81v102.74c0,1.51.61,2.8,1.56,3.73h0s0,0,0,0c.24.23.5.44.77.62l3.06,2.46.47-1.62c.66-.08,1.32-.29,1.95-.65l133.88-76.5V4.5c0-.14,0-.28-.02-.41l1.73-1.22Z"/>
        <g>
          <path class="cls-4" d="M8.44,193.18c-2.21,0-4-1.8-4-4v-103.98c0-3.04,1.64-5.87,4.28-7.38L139.15,3.28c.62-.35,1.28-.53,1.98-.53,2.21,0,4,1.8,4,4v103.98c0,3.04-1.64,5.87-4.28,7.38L10.42,192.64c-.62.35-1.29.53-1.98.53Z"/>
          <path class="cls-8" d="M141.12,3.25h0c1.69,0,3.5,1.34,3.5,3.5v103.98c0,2.86-1.54,5.52-4.03,6.94L10.17,192.21c-.54.31-1.12.47-1.73.47-1.69,0-3.5-1.34-3.5-3.5v-103.98c0-2.86,1.54-5.52,4.03-6.94L139.4,3.72c.54-.31,1.12-.47,1.73-.47M141.12,2.25c-.74,0-1.51.19-2.23.6L8.47,77.38c-2.8,1.6-4.53,4.58-4.53,7.81v103.98c0,2.62,2.15,4.5,4.5,4.5.74,0,1.51-.19,2.23-.6l130.43-74.53c2.8-1.6,4.53-4.58,4.53-7.81V6.75c0-2.62-2.15-4.51-4.5-4.5h0Z"/>
        </g>
        <g>
          <path class="cls-3" d="M8.44,193.18c-2.21,0-4-1.8-4-4v-.96l140.69-80.4v2.91c0,3.04-1.64,5.87-4.28,7.38L10.42,192.64c-.62.35-1.29.53-1.98.53h0Z"/>
          <path class="cls-8" d="M144.63,108.68v2.05c0,2.86-1.54,5.52-4.03,6.94L10.17,192.21c-.54.31-1.12.47-1.73.47-1.69,0-3.5-1.34-3.5-3.5v-.66l139.69-79.82M145.63,106.96L3.94,187.93v1.25c0,2.62,2.15,4.5,4.5,4.5.74,0,1.51-.19,2.23-.6l130.43-74.53c2.8-1.6,4.53-4.58,4.53-7.81v-3.78h0Z"/>
        </g>
        <path class="cls-5" d="M7.87,174.74v-89.91c0-1.61.86-3.1,2.27-3.91L140.01,6.71c.75-.43,1.68.11,1.68.98v89.91c0,1.61-.86,3.1-2.27,3.91L9.55,175.72c-.75.43-1.68-.11-1.68-.98Z"/>
        <g>
          <path class="cls-2" d="M98.56,54.62v47.94c0,2.44-1.31,4.69-3.42,5.9l-39.04,22.31c-2.26,1.29-5.08-.34-5.08-2.95v-47.94c0-2.44,1.31-4.69,3.42-5.9l39.04-22.31c2.26-1.29,5.08.34,5.08,2.95Z"/>
          <path class="cls-1" d="M81.19,65.48v5.3c-.57.33-.86.49-1.43.81v-1.77c-1.14.65-1.71.98-2.85,1.63v1.77c-.57.33-.86.49-1.43.81v-1.77c-.57.33-.86.49-1.43.81v3.53c-.57.33-.86.49-1.43.81v-1.77c-.57.33-.86.49-1.43.81v1.77c-1.14.65-1.71.98-2.85,1.63v-1.77c.57-.33.86-.49,1.43-.81v-1.77c-.57.33-.86.49-1.43.81v-1.77c.57-.33.86-.49,1.43-.81v-1.77c.57-.33.86-.49,1.43-.81v3.53c.57-.33.86-.49,1.43-.81v-1.77c2.28-1.3,3.42-1.96,5.7-3.26v-1.77c1.14-.65,1.71-.98,2.85-1.63ZM71.21,80.01v3.53c.57-.33.86-.49,1.43-.81v-5.3c-.57.33-.86.49-1.43.81v1.77ZM74.06,76.62v1.77c.57-.33.86-.49,1.43-.81v-1.77c-.57.33-.86.49-1.43.81ZM69.78,82.59v-1.77c-.57.33-.86.49-1.43.81v3.53c.57-.33.86-.49,1.43-.81v-1.77ZM79.77,73.36v-1.77c-.57.33-.86.49-1.43.81v1.77c-.57.33-.86.49-1.43.81v1.77c-.57.33-.86.49-1.43.81v1.77c.57-.33.86-.49,1.43-.81v3.53c.57-.33.86-.49,1.43-.81v-5.3c1.14-.65,1.71-.98,2.85-1.63v-1.77c-.57.33-.86.49-1.43.81ZM75.49,82.87v-3.53c-.57.33-.86.49-1.43.81v5.3c.57-.33.86-.49,1.43-.81.57-.33.86-.49,1.43-.81v-1.77c-.57.33-.86.49-1.43.81ZM88.32,75.53c-.57.33-.86.49-1.43.81v1.77c.57-.33.86-.49,1.43-.81v-1.77ZM89.75,74.72v1.77c.57-.33.86-.49,1.43-.81v-1.77c-.57.33-.86.49-1.43.81ZM91.17,77.44c.57-.33.86-.49,1.43-.81v-1.77c-.57.33-.86.49-1.43.81v1.77ZM85.47,82.46c.57-.33.86-.49,1.43-.81v-3.53c-.57.33-.86.49-1.43.81v-1.77c-.57.33-.86.49-1.43.81v3.53c.57-.33.86-.49,1.43-.81v1.77ZM88.32,80.83c.57-.33.86-.49,1.43-.81v-1.77c-.57.33-.86.49-1.43.81v1.77ZM65.51,95.63v1.77c.57-.33.86-.49,1.43-.81v-1.77c-.57.33-.86.49-1.43.81ZM89.75,81.78v1.77c.57-.33.86-.49,1.43-.81v1.77c.57-.33.86-.49,1.43-.81v-3.53c-.57.33-.86.49-1.43.81-.57.33-.86.49-1.43.81ZM68.36,95.77v1.77c.57-.33.86-.49,1.43-.81v-1.77c-.57.33-.86.49-1.43.81ZM71.21,94.14v1.77c.57-.33.86-.49,1.43-.81v-1.77c-.57.33-.86.49-1.43.81ZM69.79,96.72v1.77c.57-.33.86-.49,1.43-.81v-1.77c-.57.33-.86.49-1.43.81ZM88.32,86.13v1.77c.57-.33.86-.49,1.43-.81v-1.77c-.57.33-.86.49-1.43.81ZM89.75,87.08v1.77c.57-.33.86-.49,1.43-.81v3.53c-1.14.65-1.71.98-2.85,1.63v1.77c1.71-.98,2.57-1.47,4.28-2.44v-7.06c-1.14.65-1.71.98-2.85,1.63ZM56.95,98.75v10.6c.57-.33.86-.49,1.43-.81v-10.6c-.57.33-.86.49-1.43.81ZM82.62,98.22c.57-.33.86-.49,1.43-.81v-1.77c-.57.33-.86.49-1.43.81v1.77ZM85.47,89.52v-1.77c-.57.33-.86.49-1.43.81v-1.77c-.57.33-.86.49-1.43.81v1.77c.57-.33.86-.49,1.43-.81v1.77c-.57.33-.86.49-1.43.81v1.77c2.28-1.3,3.42-1.96,5.7-3.26v1.77c-.57.33-.86.49-1.43.81v3.53c.57-.33.86-.49,1.43-.81v3.53c-.57.33-.86.49-1.43.81v3.53c.57-.33.86-.49,1.43-.81v1.77c-2.28,1.3-3.42,1.96-5.7,3.26v1.77c-.57.33-.86.49-1.43.81v-1.77c-.57.33-.86.49-1.43.81v-1.77c.57-.33.86-.49,1.43-.81v-1.77c-.57.33-.86.49-1.43.81v1.77c-.57.33-.86.49-1.43.81v-3.53c.57-.33.86-.49,1.43-.81v-5.3c-.57.33-.86.49-1.43.81v-1.77c-1.14.65-1.71.98-2.85,1.63v-1.77c1.71-.98,2.57-1.47,4.28-2.44v-1.77c.57-.33.86-.49,1.43-.81v-1.77c-1.14.65-1.71.98-2.85,1.63v1.77c-1.14.65-1.71.98-2.85,1.63v1.77c-.57.33-.86.49-1.43.81v-5.3c-.57.33-.86.49-1.43.81v-1.77c-.57.33-.86.49-1.43.81v1.77c-.57.33-.86.49-1.43.81v-3.53c-1.71.98-2.57,1.47-4.28,2.44v1.77c-.57.33-.86.49-1.43.81v1.77c.57-.33.86-.49,1.43-.81v1.77c1.14-.65,1.71-.98,2.85-1.63v1.77c-1.14.65-1.71.98-2.85,1.63v1.77c1.14-.65,1.71-.98,2.85-1.63v-1.77c.57-.33.86-.49,1.43-.81v3.53c.57-.33.86-.49,1.43-.81v-1.77c.57-.33.86-.49,1.43-.81v5.3c.57-.33.86-.49,1.43-.81v1.77c-1.14.65-1.71.98-2.85,1.63v1.77c-.57.33-.86.49-1.43.81v7.06c-.57.33-.86.49-1.43.81v-8.83c.57-.33.86-.49,1.43-.81v-1.77c.57-.33.86-.49,1.43-.81v-1.77c-.57.33-.86.49-1.43.81v1.77c-.57.33-.86.49-1.43.81v-3.53c-1.71.98-2.57,1.47-4.28,2.44v-1.77c-1.14.65-1.71.98-2.85,1.63v1.77c-.57.33-.86.49-1.43.81v-7.06c.57-.33.86-.49,1.43-.81v3.53c1.14-.65,1.71-.98,2.85-1.63v-1.77c-.57.33-.86.49-1.43.81v-3.53c-.57.33-.86.49-1.43.81v-1.77c-.57.33-.86.49-1.43.81v-1.77c1.14-.65,1.71-.98,2.85-1.63v-1.77c-1.14.65-1.71.98-2.85,1.63v1.77c-1.14.65-1.71.98-2.85,1.63v-3.53c2.85-1.63,4.28-2.44,7.13-4.07v1.77c.57-.33.86-.49,1.43-.81v1.77c.57-.33.86-.49,1.43-.81v-1.77c-.57.33-.86.49-1.43.81v-1.77c2.85-1.63,4.28-2.44,7.13-4.07v1.77c-.57.33-.86.49-1.43.81v3.53c.57-.33.86-.49,1.43-.81v-1.77c1.71-.98,2.57-1.47,4.28-2.44v-1.77c.57-.33.86-.49,1.43-.81v-1.77c.57-.33.86-.49,1.43-.81v-3.53c.57-.33.86-.49,1.43-.81v3.53c.57-.33.86-.49,1.43-.81v3.53c.57-.33.86-.49,1.43-.81v1.77c-.57.33-.86.49-1.43.81v1.77c2.28-1.3,3.42-1.96,5.7-3.26v1.77c-.57.33-.86.49-1.43.81v3.53c-.57.33-.86.49-1.43.81ZM69.79,87.89c-.57.33-.86.49-1.43.81v1.77c.57-.33.86-.49,1.43-.81v-1.77ZM75.49,89.93v-1.77c-.57.33-.86.49-1.43.81v1.77c.57-.33.86-.49,1.43-.81ZM76.91,90.88c-.57.33-.86.49-1.43.81v1.77c.57-.33.86-.49,1.43-.81v-1.77ZM79.77,85.72c-1.14.65-1.71.98-2.85,1.63v1.77c1.14-.65,1.71-.98,2.85-1.63v-1.77ZM85.47,100.12c-.57.33-.86.49-1.43.81v1.77c-.57.33-.86.49-1.43.81v1.77c1.14-.65,1.71-.98,2.85-1.63v-3.53ZM81.19,95.5v5.3c1.71-.98,2.57-1.47,4.28-2.44v-5.3c-1.71.98-2.57,1.47-4.28,2.44ZM74.06,101.34v1.77c1.14-.65,1.71-.98,2.85-1.63v3.53c.57-.33.86-.49,1.43-.81v-5.3c-1.71.98-2.57,1.47-4.28,2.44ZM72.64,107.45v1.77c1.14-.65,1.71-.98,2.85-1.63v-1.77c-1.14.65-1.71.98-2.85,1.63ZM88.32,100.26v1.77c.57-.33.86-.49,1.43-.81v-1.77c-.57.33-.86.49-1.43.81ZM89.75,97.67v1.77c.57-.33.86-.49,1.43-.81v1.77c.57-.33.86-.49,1.43-.81v-3.53c-1.14.65-1.71.98-2.85,1.63ZM72.64,110.98v-1.77c-.57.33-.86.49-1.43.81v3.53c1.14-.65,1.71-.98,2.85-1.63v-1.77c-.57.33-.86.49-1.43.81ZM76.91,110.31v-3.53c-.57.33-.86.49-1.43.81v3.53c-.57.33-.86.49-1.43.81v1.77c1.71-.98,2.57-1.47,4.28-2.44v-1.77c-.57.33-.86.49-1.43.81ZM91.17,102.16v-1.77c-.57.33-.86.49-1.43.81v1.77c-.57.33-.86.49-1.43.81v1.77c1.71-.98,2.57-1.47,4.28-2.44v-1.77c-.57.33-.86.49-1.43.81ZM66.95,73.62v12.36c-3.99,2.28-5.99,3.42-9.98,5.7v-12.36c3.99-2.28,5.99-3.42,9.98-5.7ZM65.52,76.2c-2.85,1.63-4.28,2.44-7.13,4.07v8.83c2.85-1.63,4.28-2.44,7.13-4.07v-8.83ZM59.8,81.23v5.3c1.71-.98,2.57-1.47,4.28-2.44v-5.3c-1.71.98-2.57,1.47-4.28,2.44ZM92.61,58.95v12.36c-3.99,2.28-5.99,3.42-9.98,5.7v-12.36c3.99-2.28,5.99-3.42,9.98-5.7ZM91.19,61.53c-2.85,1.63-4.28,2.44-7.13,4.07v8.83c2.85-1.63,4.28-2.44,7.13-4.07v-8.83ZM85.47,66.57v5.3c1.71-.98,2.57-1.47,4.28-2.44v-5.3c-1.71.98-2.57,1.47-4.28,2.44ZM66.95,105.41v12.36c-3.99,2.28-5.99,3.42-9.98,5.7v-12.36c3.99-2.28,5.99-3.42,9.98-5.7ZM65.52,107.99c-2.85,1.63-4.28,2.44-7.13,4.07v8.83c2.85-1.63,4.28-2.44,7.13-4.07v-8.83ZM59.8,113.02v5.3c1.71-.98,2.57-1.47,4.28-2.44v-5.3c-1.71.98-2.57,1.47-4.28,2.44Z"/>
        </g>
      </g>
      <path class="cls-8" d="M137.19,1c.64,0,1.27.18,1.85.53l3.83,2.18s.02.01.03.02c1.08.63,1.73,1.76,1.73,3.02v103.98c0,2.86-1.54,5.52-4.03,6.94l-52.87,30.21c-.24.14-.41.36-.47.63l-3.64,14.57c-1.08,4.33.87,8.89,4.74,11.1l26.61,15.2c1.15.66,1.81,1.85,1.75,3.18,0,.04,0,.09,0,.13l-.21,5.15s0,.04,0,.06c-.04.81-.49,1.53-1.19,1.93l-21.72,12.33c-3.24,1.85-6.93,2.83-10.66,2.83s-7.42-.98-10.66-2.83l-27.7-15.83c-2.23-1.27-3.35-3.9-2.72-6.38l4.06-16.22c.1-.39-.05-.8-.37-1.04-.18-.13-.39-.2-.6-.2-.17,0-.34.04-.5.13l-34.27,19.58c-.54.31-1.12.47-1.72.47-.87,0-1.72-.33-2.38-.93-.04-.04-.08-.07-.13-.1l-2.98-2.4s-.05-.04-.08-.06c-.23-.15-.44-.32-.63-.51-.81-.79-1.26-1.86-1.26-3.01v-102.74c0-2.86,1.54-5.52,4.03-6.94L135.46,1.47c.54-.31,1.12-.47,1.73-.47M137.19,0c-.74,0-1.5.19-2.22.6L4.53,75.13C1.73,76.73,0,79.71,0,82.94v102.74c0,1.51.61,2.8,1.56,3.73h0s0,0,0,0c.24.23.5.44.77.62l3.06,2.46h0c.82.74,1.91,1.19,3.05,1.19.74,0,1.5-.19,2.22-.6l34.27-19.58-4.05,16.22c-.73,2.93.57,6,3.2,7.5l27.7,15.83c3.46,1.98,7.31,2.96,11.16,2.96s7.7-.99,11.16-2.96l21.72-12.33c1-.57,1.64-1.61,1.7-2.74h0l.21-5.35h0c.06-1.59-.68-3.2-2.26-4.09l-26.61-15.2c-3.5-2-5.24-6.08-4.26-9.99l3.64-14.57,52.87-30.21c2.8-1.6,4.53-4.58,4.53-7.81V6.75c0-1.72-.93-3.12-2.22-3.88h0s-.01,0-.01,0c0,0,0,0-.01,0l-3.85-2.19c-.7-.43-1.51-.66-2.35-.66h0Z"/>
    </g>
  </g>
</svg>