<svg width="12" height="12" viewBox="0 0 12 12" fill="none" xmlns="http://www.w3.org/2000/svg">
<path d="M12 9.5V0H10.5V9.5C10.5 10.0625 10.0312 10.5 9.5 10.5H2.5C1.9375 10.5 1.5 10.0625 1.5 9.5V0H0V9.5C0 10.9062 1.09375 12 2.5 12H9.5C10.875 12 12 10.9062 12 9.5Z" fill="black"/>
<path d="M4 2V8.5C4 8.78125 3.75 9 3.5 9C3.21875 9 3 8.78125 3 8.5V2C3 1.75 3.21875 1.5 3.5 1.5C3.75 1.5 4 1.75 4 2Z" fill="black"/>
<path d="M6.5 2V8.5C6.5 8.78125 6.25 9 6 9C5.71875 9 5.5 8.78125 5.5 8.5V2C5.5 1.75 5.71875 1.5 6 1.5C6.25 1.5 6.5 1.75 6.5 2Z" fill="black"/>
<path d="M9 2V8.5C9 8.78125 8.75 9 8.5 9C8.21875 9 8 8.78125 8 8.5V2C8 1.75 8.21875 1.5 8.5 1.5C8.75 1.5 9 1.75 9 2Z" fill="black"/>
</svg>
