<svg width="14" height="4" viewBox="0 0 14 4" fill="none" xmlns="http://www.w3.org/2000/svg">
<path fill-rule="evenodd" clip-rule="evenodd" d="M9.90625 0.78125L11.0625 2.5H11.5H13H13.25C13.6562 2.5 14 2.84375 14 3.25C14 3.6875 13.6562 4 13.25 4H13H11.5H2.5H1H0.75C0.3125 4 0 3.6875 0 3.25C0 2.84375 0.3125 2.5 0.75 2.5H1H2.5H2.90625L4.0625 0.78125C4.375 0.3125 4.9375 0 5.53125 0H8.4375C9.03125 0 9.59375 0.3125 9.90625 0.78125ZM4.71875 2.5L5.3125 1.625C5.34375 1.5625 5.4375 1.5 5.53125 1.5H8.4375C8.53125 1.5 8.625 1.5625 8.65625 1.625L9.25 2.5H4.71875Z" fill="black"/>
</svg>
