<?xml version="1.0" encoding="UTF-8"?>
<svg id="Layer_1" data-name="Layer 1" xmlns="http://www.w3.org/2000/svg" viewBox="0 0 12 10">
  <defs>
    <style>
      .cls-1 {
        fill: #c63c66;
      }

      .cls-2 {
        fill: #e24747;
      }

      .cls-3 {
        fill: #449be2;
      }

      .cls-4 {
        fill: #8657aa;
      }

      .cls-5 {
        fill: #507ed1;
      }
    </style>
  </defs>
  <rect class="cls-3" y=".28" width="1.73" height="1.73" rx=".4" ry=".4"/>
  <rect class="cls-3" y="2.85" width="1.73" height="1.73" rx=".4" ry=".4"/>
  <rect class="cls-3" y="5.42" width="1.73" height="1.73" rx=".4" ry=".4"/>
  <rect class="cls-3" y="8" width="1.73" height="1.73" rx=".4" ry=".4"/>
  <rect class="cls-5" x="2.57" y="2.85" width="1.73" height="1.73" rx=".4" ry=".4"/>
  <rect class="cls-5" x="2.57" y="5.42" width="1.73" height="1.73" rx=".4" ry=".4"/>
  <rect class="cls-5" x="2.57" y="8" width="1.73" height="1.73" rx=".4" ry=".4"/>
  <path class="cls-4" d="M5.53,5.42h.93c.22,0,.4.18.4.4v.93c0,.22-.18.4-.4.4h-.93c-.22,0-.4-.18-.4-.4v-.93c0-.22.18-.4.4-.4Z"/>
  <path class="cls-4" d="M5.53,8h.93c.22,0,.4.18.4.4v.93c0,.22-.18.4-.4.4h-.93c-.22,0-.4-.18-.4-.4v-.93c0-.22.18-.4.4-.4Z"/>
  <path class="cls-1" d="M8.1,2.85h.93c.22,0,.4.18.4.4v.93c0,.22-.18.4-.4.4h-.93c-.22,0-.4-.18-.4-.4v-.93c0-.22.18-.4.4-.4Z"/>
  <path class="cls-1" d="M8.1,5.42h.93c.22,0,.4.18.4.4v.93c0,.22-.18.4-.4.4h-.93c-.22,0-.4-.18-.4-.4v-.93c0-.22.18-.4.4-.4Z"/>
  <path class="cls-1" d="M8.1,8h.93c.22,0,.4.18.4.4v.93c0,.22-.18.4-.4.4h-.93c-.22,0-.4-.18-.4-.4v-.93c0-.22.18-.4.4-.4Z"/>
  <path class="cls-2" d="M10.67.28h.93c.22,0,.4.18.4.4v.93c0,.22-.18.4-.4.4h-.93c-.22,0-.4-.18-.4-.4v-.93c0-.22.18-.4.4-.4Z"/>
  <path class="cls-2" d="M10.67,2.85h.93c.22,0,.4.18.4.4v.93c0,.22-.18.4-.4.4h-.93c-.22,0-.4-.18-.4-.4v-.93c0-.22.18-.4.4-.4Z"/>
  <path class="cls-2" d="M10.67,5.42h.93c.22,0,.4.18.4.4v.93c0,.22-.18.4-.4.4h-.93c-.22,0-.4-.18-.4-.4v-.93c0-.22.18-.4.4-.4Z"/>
  <path class="cls-2" d="M10.67,8h.93c.22,0,.4.18.4.4v.93c0,.22-.18.4-.4.4h-.93c-.22,0-.4-.18-.4-.4v-.93c0-.22.18-.4.4-.4Z"/>
</svg>