<?xml version="1.0" encoding="UTF-8"?>
<svg id="Layer_1" data-name="Layer 1" xmlns="http://www.w3.org/2000/svg" viewBox="0 0 222 96">
  <defs>
    <style>
      .cls-1 {
        fill: #c63c66;
      }

      .cls-2 {
        fill: #3d58b9;
      }

      .cls-3 {
        fill: #27e893;
      }

      .cls-4 {
        fill: #e24747;
      }

      .cls-5 {
        fill: none;
      }

      .cls-6 {
        fill: #449be2;
      }

      .cls-7 {
        fill: #8657aa;
      }

      .cls-8 {
        fill: #38e0d8;
      }

      .cls-9 {
        fill: #55c1ed;
      }

      .cls-10 {
        fill: #507ed1;
      }

      .cls-11 {
        fill: #313a44;
      }

      .cls-12 {
        fill: #1668e0;
      }
    </style>
  </defs>
  <g>
    <g>
      <rect class="cls-2" width="7.32" height="7.32" rx="1.84" ry="1.84"/>
      <rect class="cls-2" y="10.89" width="7.32" height="7.32" rx="1.84" ry="1.84"/>
      <rect class="cls-2" y="21.79" width="7.32" height="7.32" rx="1.84" ry="1.84"/>
      <rect class="cls-2" y="32.68" width="7.32" height="7.32" rx="1.84" ry="1.84"/>
      <rect class="cls-12" x="10.88" y="10.89" width="7.32" height="7.32" rx="1.84" ry="1.84"/>
      <rect class="cls-12" x="10.88" y="21.79" width="7.32" height="7.32" rx="1.84" ry="1.84"/>
      <rect class="cls-12" x="10.88" y="32.68" width="7.32" height="7.32" rx="1.84" ry="1.84"/>
      <rect class="cls-9" x="21.74" y="21.79" width="7.32" height="7.32" rx="1.84" ry="1.84"/>
      <rect class="cls-9" x="21.74" y="32.68" width="7.32" height="7.32" rx="1.84" ry="1.84"/>
      <rect class="cls-8" x="32.62" y="10.89" width="7.32" height="7.32" rx="1.84" ry="1.84"/>
      <rect class="cls-8" x="32.62" y="21.79" width="7.32" height="7.32" rx="1.84" ry="1.84"/>
      <rect class="cls-8" x="32.62" y="32.68" width="7.32" height="7.32" rx="1.84" ry="1.84"/>
      <rect class="cls-3" x="43.49" width="7.32" height="7.32" rx="1.84" ry="1.84"/>
      <rect class="cls-3" x="43.49" y="10.89" width="7.32" height="7.32" rx="1.84" ry="1.84"/>
      <rect class="cls-3" x="43.49" y="21.79" width="7.32" height="7.32" rx="1.84" ry="1.84"/>
      <rect class="cls-3" x="43.49" y="32.68" width="7.32" height="7.32" rx="1.84" ry="1.84"/>
    </g>
    <g>
      <g>
        <path class="cls-11" d="M68.39,29.42c4.12.89,6.03,2.4,6.03,5.26,0,3.2-2.65,5.26-6.32,5.26-2.93,0-5.35-.98-7.57-2.96l1.29-1.54c1.94,1.74,3.77,2.62,6.34,2.62s4.12-1.29,4.12-3.18c0-1.74-.93-2.72-4.82-3.54-4.25-.93-6.21-2.3-6.21-5.36s2.57-5.08,6.08-5.08c2.7,0,4.62.76,6.51,2.27l-1.21,1.61c-1.72-1.41-3.44-2-5.35-2-2.4,0-3.94,1.32-3.94,3.01s.94,2.75,5.02,3.63l.03.02Z"/>
        <path class="cls-11" d="M85.68,40c-5.63,0-9.4-4.42-9.4-9.54s3.84-9.6,9.47-9.6,9.42,4.42,9.42,9.54-3.84,9.6-9.47,9.6h-.02ZM85.68,22.78c-4.24,0-7.25,3.38-7.25,7.62s3.06,7.67,7.3,7.67,7.25-3.38,7.25-7.62-3.06-7.67-7.3-7.67Z"/>
        <path class="cls-11" d="M111.27,23.1h-11.21v6.61h10.02v1.9h-10.02v8.06h-2.09v-18.51h13.29v1.94Z"/>
        <path class="cls-11" d="M122.32,39.69h-2.12v-16.57h-6.21v-1.94h14.54v1.94h-6.21v16.57Z"/>
        <path class="cls-11" d="M146.77,39.69h-2.25l-2.17-4.88h-10.07l-2.2,4.88h-2.14l8.43-18.64h1.95l8.43,18.64h.02ZM137.33,23.48l-4.22,9.44h8.43s-4.21-9.44-4.21-9.44Z"/>
        <path class="cls-11" d="M156.32,39.69h-6.42v-18.51h6.42c5.81,0,9.83,3.99,9.83,9.22s-4.02,9.29-9.83,9.29ZM156.32,23.1h-4.34v14.65h4.34c4.69,0,7.67-3.18,7.67-7.3s-2.98-7.35-7.67-7.35Z"/>
        <path class="cls-11" d="M178.39,34.6h-.1l-6.74-9.88v14.97h-2.04v-18.51h2.12l6.74,10.1,6.74-10.1h2.12v18.51h-2.09v-14.98l-6.74,9.92-.02-.02Z"/>
        <path class="cls-11" d="M193.68,21.18v18.51h-2.09v-18.51s2.09,0,2.09,0Z"/>
        <path class="cls-11" d="M211.66,21.18h2.04v18.51h-1.67l-11.95-15.18v15.18h-2.04v-18.51h1.95l11.66,14.83v-14.83h.02Z"/>
      </g>
      <path class="cls-11" d="M216.97,18.53c0-.33.07-.63.18-.91s.28-.53.5-.73.46-.36.75-.48.58-.18.89-.18.61.07.89.18.53.28.75.48c.22.2.38.45.5.73.12.28.18.6.18.91s-.07.65-.18.93-.28.53-.5.73-.46.36-.75.48-.58.18-.89.18-.61-.07-.89-.18-.53-.28-.75-.48c-.22-.2-.38-.45-.5-.73-.12-.28-.18-.6-.18-.93ZM217.37,18.53c0,.28.05.55.15.78.1.25.23.45.4.63s.36.31.6.41.48.15.75.15.51-.05.75-.15.43-.25.6-.41c.17-.18.31-.38.41-.63.1-.25.15-.5.15-.78s-.05-.53-.15-.78c-.1-.25-.23-.45-.41-.63-.17-.18-.38-.31-.6-.41-.23-.1-.48-.15-.75-.15s-.51.05-.75.15-.43.25-.6.41-.3.38-.4.63c-.1.25-.15.5-.15.78ZM218.39,17.17h1.03c.63,0,.94.26.94.78,0,.25-.07.43-.2.53-.13.12-.31.18-.51.2l.78,1.19h-.45l-.73-1.16h-.45v1.16h-.41v-2.7ZM218.81,18.38h.7c.08,0,.17-.02.23-.05.07-.03.12-.07.17-.13s.07-.15.07-.25-.02-.17-.05-.22-.08-.1-.15-.13c-.07-.03-.12-.05-.2-.05h-.76v.88-.05Z"/>
    </g>
  </g>
  <g>
    <g>
      <g>
        <path class="cls-11" d="M70.02,90.67h-.1l-6.64-9.75v14.76h-2.01v-18.25h2.09l6.64,9.96,6.64-9.96h2.09v18.25h-2.06v-14.78l-6.64,9.78h-.01Z"/>
        <path class="cls-11" d="M98.29,87.87c0,5.31-3.05,8.09-7.61,8.09s-7.59-2.76-7.59-7.93v-10.61h2.06v10.48c0,3.94,2.09,6.15,5.58,6.15s5.5-2.03,5.5-6.02v-10.61h2.06v10.46-.02Z"/>
        <path class="cls-11" d="M102.65,77.42h2.06v16.35h10.28v1.91h-12.33v-18.25h0Z"/>
        <path class="cls-11" d="M123.09,95.66h-2.09v-16.35h-6.13v-1.91h14.34v1.91h-6.13v16.35h.01Z"/>
        <path class="cls-11" d="M135.31,77.42v18.25h-2.06v-18.25s2.06,0,2.06,0Z"/>
        <path class="cls-11" d="M147.19,85.56c4.07.89,5.94,2.37,5.94,5.19,0,3.16-2.61,5.19-6.23,5.19-2.9,0-5.27-.97-7.46-2.92l1.28-1.51c1.91,1.73,3.72,2.58,6.26,2.58s4.07-1.28,4.07-3.13c0-1.73-.91-2.68-4.75-3.5-4.2-.91-6.13-2.27-6.13-5.29s2.53-5.01,6-5.01c2.66,0,4.56.76,6.42,2.24l-1.2,1.59c-1.69-1.39-3.4-1.99-5.27-1.99-2.37,0-3.88,1.31-3.88,2.98s.94,2.71,4.95,3.58h.02Z"/>
        <path class="cls-11" d="M165.3,95.98c-5.55,0-9.28-4.35-9.28-9.41s3.78-9.46,9.33-9.46,9.28,4.35,9.28,9.41-3.78,9.46-9.33,9.46ZM165.3,79c-4.17,0-7.14,3.34-7.14,7.51s3.02,7.56,7.2,7.56,7.14-3.34,7.14-7.51-3.02-7.56-7.2-7.56Z"/>
        <path class="cls-11" d="M191.57,79.32h-11.06v6.52h9.88v1.87h-9.88v7.95h-2.06v-18.25h13.12s0,1.91,0,1.91Z"/>
        <path class="cls-11" d="M202.46,95.66h-2.09v-16.35h-6.13v-1.91h14.34v1.91h-6.13v16.35h.01Z"/>
      </g>
      <path class="cls-11" d="M211.76,74.8c0-.32.06-.62.18-.91s.28-.52.49-.73.45-.36.73-.48.57-.17.89-.17.6.06.87.17c.27.11.52.27.73.48.2.2.37.44.49.73.12.28.18.58.18.91s-.06.62-.18.91c-.12.27-.28.52-.49.72-.2.2-.45.36-.73.48s-.57.17-.87.17-.6-.06-.89-.17-.52-.27-.73-.48c-.2-.2-.37-.44-.49-.72-.12-.27-.18-.58-.18-.91ZM212.17,74.8c0,.27.05.53.15.77.1.24.23.44.4.61s.36.31.59.41.48.15.74.15.51-.05.74-.15.42-.24.59-.41c.17-.17.31-.37.4-.61.1-.24.15-.5.15-.77s-.05-.53-.15-.77c-.1-.24-.23-.44-.4-.62-.17-.17-.36-.31-.59-.41s-.48-.15-.74-.15-.51.05-.74.15-.43.24-.59.41-.3.37-.4.62c-.1.24-.15.5-.15.77ZM213.18,73.46h1.01c.62,0,.93.25.93.76,0,.24-.07.42-.2.53-.14.11-.31.18-.5.2l.77,1.18h-.43l-.73-1.15h-.43v1.15h-.41v-2.67h-.01ZM213.58,74.66h.68c.08,0,.16-.02.23-.06s.11-.07.16-.14c.05-.06.06-.15.06-.25,0-.09-.02-.16-.06-.22s-.08-.1-.14-.12c-.06-.03-.12-.05-.19-.06s-.14-.01-.2-.01h-.53v.86h0Z"/>
    </g>
    <g>
      <rect class="cls-6" y="56" width="7.31" height="7.31" rx="1.83" ry="1.83"/>
      <rect class="cls-6" y="66.89" width="7.31" height="7.31" rx="1.83" ry="1.83"/>
      <rect class="cls-6" y="77.79" width="7.31" height="7.31" rx="1.83" ry="1.83"/>
      <rect class="cls-6" y="88.69" width="7.31" height="7.31" rx="1.83" ry="1.83"/>
      <rect class="cls-10" x="10.88" y="66.89" width="7.31" height="7.31" rx="1.83" ry="1.83"/>
      <rect class="cls-10" x="10.88" y="77.79" width="7.31" height="7.31" rx="1.83" ry="1.83"/>
      <rect class="cls-10" x="10.88" y="88.69" width="7.31" height="7.31" rx="1.83" ry="1.83"/>
      <rect class="cls-7" x="21.75" y="77.79" width="7.31" height="7.31" rx="1.83" ry="1.83"/>
      <rect class="cls-7" x="21.75" y="88.69" width="7.31" height="7.31" rx="1.83" ry="1.83"/>
      <rect class="cls-1" x="32.62" y="66.89" width="7.31" height="7.31" rx="1.83" ry="1.83"/>
      <rect class="cls-1" x="32.62" y="77.79" width="7.31" height="7.31" rx="1.83" ry="1.83"/>
      <rect class="cls-1" x="32.62" y="88.69" width="7.31" height="7.31" rx="1.83" ry="1.83"/>
      <rect class="cls-4" x="43.49" y="56" width="7.31" height="7.31" rx="1.83" ry="1.83"/>
      <rect class="cls-4" x="43.49" y="66.89" width="7.31" height="7.31" rx="1.83" ry="1.83"/>
      <rect class="cls-4" x="43.49" y="77.79" width="7.31" height="7.31" rx="1.83" ry="1.83"/>
      <rect class="cls-4" x="43.49" y="88.69" width="7.31" height="7.31" rx="1.83" ry="1.83"/>
    </g>
  </g>
  <rect id="bounding-box" class="cls-5" width="222" height="96"/>
</svg>