<svg xmlns="http://www.w3.org/2000/svg" id="Layer_2" viewBox="0 0 512 584.09"><defs><style>.cls-1,.cls-2,.cls-3,.cls-4{fill:#667387;}.cls-2{opacity:.4;}.cls-3{opacity:.2;}.cls-4{opacity:.6;}</style></defs><g id="Icons"><g id="arrow-turn-down-right-ellipsis"><path class="cls-1" d="M512,456.23c0,6.14-2.34,12.28-7.03,16.97l-104,104c-9.37,9.33-24.57,9.33-33.97-.87-9.38-9.37-9.38-24.56,0-33.94l63.1-62.16v-.42H32c-17.67,0-32-14.33-32-32v-135.71c0-13.25,10.75-24,24-24h0c13.25,0,24,10.75,24,24v119.71H429.68l-62.61-62.61c-4.77-4.67-7.07-10.77-7.07-16.97s2.34-12.28,7.03-16.97c9.37-9.37,24.56-9.37,33.94,0l104,104c4.69,4.69,7.03,10.83,7.03,16.97Z"/><circle class="cls-4" cx="24" cy="216.1" r="24"/><circle class="cls-3" cx="24" cy="24" r="24"/><circle class="cls-2" cx="24" cy="120.1" r="24"/></g></g></svg>