<svg xmlns="http://www.w3.org/2000/svg" viewBox="0 0 937.12 280"><defs><style>.cls-1{fill:none;}</style></defs><g id="Layer_2" data-name="Layer 2"><g id="Layer_1-2" data-name="Layer 1"><rect class="cls-1" width="937.12" height="280"/><g id="Softadmin"><path d="M94.45,191.6c22.69,5,33.16,13.24,33.16,28.94,0,17.6-14.54,28.94-34.76,28.94-16.14,0-29.37-5.38-41.59-16.28l7.13-8.44c10.61,9.6,20.79,14.4,34.9,14.4C107,239.16,116,232,116,221.71c0-9.6-5.09-15-26.47-19.49-23.41-5.09-34.18-12.65-34.18-29.52,0-16.29,14.11-27.92,33.45-27.92,14.84,0,25.45,4.21,35.78,12.5l-6.69,8.87c-9.46-7.7-18.91-11.05-29.38-11.05-13.23,0-21.67,7.27-21.67,16.58C66.82,181.42,72.06,186.81,94.45,191.6Z"/><path d="M189.55,249.77c-31,0-51.77-24.28-51.77-52.49s21.09-52.79,52.06-52.79,51.78,24.28,51.78,52.49S220.53,249.77,189.55,249.77Zm0-94.67c-23.26,0-39.84,18.62-39.84,41.88s16.87,42.18,40.13,42.18,39.85-18.62,39.85-41.88S212.82,155.1,189.55,155.1Z"/><path d="M330.31,156.85H268.65V193.2h55.12v10.47H268.65V248H257.17V146.23h73.14Z"/><path d="M391.09,248H379.46V156.85H345.29V146.23h80v10.62H391.09Z"/><path d="M525.61,248H513.24l-11.92-26.91H445.91L433.84,248H422.06l46.39-102.52h10.77Zm-51.92-89.15L450.42,210.8h46.39Z"/><path d="M578.09,248H542.75V146.23h35.34c32,0,54.1,22,54.1,50.75S610.08,248,578.09,248Zm0-91.18H554.24v80.56h23.85c25.74,0,42.17-17.45,42.17-40.13S603.83,156.85,578.09,156.85Z"/><path d="M699.51,220.11h-.58l-37.08-54.39V248h-11.2V146.23h11.64l37.08,55.55,37.08-55.55h11.64V248H736.6V165.57Z"/><path d="M783.56,146.23V248H772.07V146.23Z"/><path d="M882.44,146.23h11.2V248h-9.16l-65.73-83.47V248h-11.2V146.23h10.76l64.13,81.58Z"/></g><g id="R"><path d="M911.67,131.65a12.72,12.72,0,0,1,1-5.05,12.15,12.15,0,0,1,2.76-4,13,13,0,0,1,4-2.67,12.77,12.77,0,0,1,9.81,0,13.14,13.14,0,0,1,4.06,2.67,12.28,12.28,0,0,1,2.75,4,13.16,13.16,0,0,1,0,10.11,12.44,12.44,0,0,1-2.75,4,13.14,13.14,0,0,1-4.06,2.67,12.89,12.89,0,0,1-9.81,0,13,13,0,0,1-4-2.67,12.32,12.32,0,0,1-2.76-4A12.63,12.63,0,0,1,911.67,131.65Zm2.26,0a11.08,11.08,0,0,0,3,7.75,10.48,10.48,0,0,0,3.32,2.29,10.14,10.14,0,0,0,4.11.84,10,10,0,0,0,4.08-.84A10.51,10.51,0,0,0,934,136a11.68,11.68,0,0,0,0-8.6,10.46,10.46,0,0,0-5.56-5.75,10,10,0,0,0-4.08-.84,10.14,10.14,0,0,0-4.11.84A10.32,10.32,0,0,0,917,123.9a10.93,10.93,0,0,0-2.22,3.46A11.11,11.11,0,0,0,913.93,131.65Zm5.61-7.46h5.61c3.46,0,5.2,1.42,5.2,4.24a3.65,3.65,0,0,1-1.13,3,5,5,0,0,1-2.81,1.11l4.28,6.57h-2.43l-4-6.4H921.8v6.4h-2.26Zm2.26,6.64h2.32c.5,0,1,0,1.47-.05a4,4,0,0,0,1.27-.3,2,2,0,0,0,.89-.75,2.48,2.48,0,0,0,.34-1.4,2.09,2.09,0,0,0-.31-1.21,2,2,0,0,0-.78-.71,3.32,3.32,0,0,0-1.07-.3,8.92,8.92,0,0,0-1.16-.07h-3Z"/></g></g></g></svg>