<svg width="26" height="26" viewBox="0 0 26 26" fill="none" xmlns="http://www.w3.org/2000/svg">
<path d="M0.670122 13.4503C0.655991 11.7437 0.991062 10.0522 1.65475 8.47973C2.28613 6.9978 3.21048 5.65865 4.37233 4.54261C5.51024 3.42937 6.84593 2.53811 8.31085 1.91459C9.8414 1.27809 11.4828 0.950409 13.1405 0.950409C14.7982 0.950409 16.4395 1.27809 17.9701 1.91459C19.4544 2.53454 20.8101 3.42578 21.9676 4.54261C23.1233 5.66181 24.0438 7.00033 24.6754 8.47973C25.3316 10.0565 25.6694 11.7475 25.6694 13.4553C25.6694 15.1631 25.3316 16.854 24.6754 18.4308C24.0402 19.9082 23.1201 21.246 21.9676 22.3679C20.8101 23.4847 19.4544 24.376 17.9701 24.9959C14.8762 26.2686 11.4047 26.2686 8.31085 24.9959C6.84593 24.3724 5.51024 23.4812 4.37233 22.3679C3.21396 21.2489 2.29012 19.9105 1.65475 18.4308C0.987317 16.856 0.652119 15.1605 0.670122 13.4503ZM2.89539 13.4503C2.8527 16.2799 3.91191 19.0152 5.84928 21.0785C6.78267 22.0343 7.89288 22.7998 9.11825 23.3325C10.3948 23.8871 11.7732 24.1687 13.1651 24.1593C14.5474 24.1686 15.9162 23.8869 17.1824 23.3325C19.6708 22.2548 21.6366 20.2438 22.6569 17.732C23.7339 15.013 23.7339 11.9861 22.6569 9.26716C21.6542 6.73012 19.6852 4.69459 17.1824 3.60755C15.9162 3.05311 14.5474 2.7714 13.1651 2.78075C11.7732 2.77136 10.3948 3.05299 9.11825 3.60755C7.91879 4.13275 6.83218 4.88475 5.91821 5.82218C4.98066 6.80895 4.23895 7.96459 3.73236 9.22778C3.17627 10.566 2.89175 12.0013 2.89539 13.4503ZM8.41914 6.10762H13.943C17.3498 6.10762 19.063 7.50529 19.063 10.281C19.1145 10.8253 19.0411 11.3743 18.8483 11.886C18.6555 12.3977 18.3484 12.8587 17.9503 13.2338C17.1628 13.8745 16.1964 14.2561 15.1835 14.3263L19.3978 20.7931H17.0051L13.0666 14.4937H10.6444V20.7931H8.41914V6.10762ZM10.6444 12.6432H12.9288C13.4211 12.6432 13.9134 12.6432 14.3762 12.594C14.8064 12.5647 15.2288 12.4649 15.6266 12.2987C15.9855 12.1449 16.2905 11.888 16.503 11.5605C16.7485 11.1444 16.865 10.6649 16.8378 10.1825C16.8598 9.76372 16.7533 9.34817 16.5325 8.99156C16.3437 8.69411 16.0784 8.45277 15.7645 8.29272C15.4324 8.13582 15.0762 8.03599 14.7109 7.99744C14.3321 7.94968 13.9506 7.92666 13.5688 7.92854H10.6149L10.6444 12.6432Z" fill="#313A44"/>
</svg>
