<svg width="16" height="16" viewBox="0 0 16 16" fill="none" xmlns="http://www.w3.org/2000/svg">
<path d="M1.71429 1.71428H0.571429C0.255837 1.71428 0 1.97012 0 2.28571V3.42856C0 3.74416 0.255837 3.99999 0.571429 3.99999H1.71429C2.02988 3.99999 2.28571 3.74416 2.28571 3.42856V2.28571C2.28571 1.97012 2.02988 1.71428 1.71429 1.71428Z" fill="#449BE2"/>
<path d="M1.71429 5.14285H0.571429C0.255837 5.14285 0 5.39869 0 5.71428V6.85714C0 7.17273 0.255837 7.42857 0.571429 7.42857H1.71429C2.02988 7.42857 2.28571 7.17273 2.28571 6.85714V5.71428C2.28571 5.39869 2.02988 5.14285 1.71429 5.14285Z" fill="#449BE2"/>
<path d="M1.71429 8.57143H0.571429C0.255837 8.57143 0 8.82726 0 9.14285V10.2857C0 10.6013 0.255837 10.8571 0.571429 10.8571H1.71429C2.02988 10.8571 2.28571 10.6013 2.28571 10.2857V9.14285C2.28571 8.82726 2.02988 8.57143 1.71429 8.57143Z" fill="#449BE2"/>
<path d="M1.71429 12H0.571429C0.255837 12 0 12.2558 0 12.5714V13.7143C0 14.0299 0.255837 14.2857 0.571429 14.2857H1.71429C2.02988 14.2857 2.28571 14.0299 2.28571 13.7143V12.5714C2.28571 12.2558 2.02988 12 1.71429 12Z" fill="#449BE2"/>
<path d="M5.14286 5.14285H4C3.68441 5.14285 3.42857 5.39869 3.42857 5.71428V6.85714C3.42857 7.17273 3.68441 7.42857 4 7.42857H5.14286C5.45845 7.42857 5.71429 7.17273 5.71429 6.85714V5.71428C5.71429 5.39869 5.45845 5.14285 5.14286 5.14285Z" fill="#507ED1"/>
<path d="M5.14286 8.57143H4C3.68441 8.57143 3.42857 8.82726 3.42857 9.14285V10.2857C3.42857 10.6013 3.68441 10.8571 4 10.8571H5.14286C5.45845 10.8571 5.71429 10.6013 5.71429 10.2857V9.14285C5.71429 8.82726 5.45845 8.57143 5.14286 8.57143Z" fill="#507ED1"/>
<path d="M5.14286 12H4C3.68441 12 3.42857 12.2558 3.42857 12.5714V13.7143C3.42857 14.0299 3.68441 14.2857 4 14.2857H5.14286C5.45845 14.2857 5.71429 14.0299 5.71429 13.7143V12.5714C5.71429 12.2558 5.45845 12 5.14286 12Z" fill="#507ED1"/>
<path d="M8.57143 8.57143H7.42857C7.11298 8.57143 6.85714 8.82726 6.85714 9.14285V10.2857C6.85714 10.6013 7.11298 10.8571 7.42857 10.8571H8.57143C8.88702 10.8571 9.14286 10.6013 9.14286 10.2857V9.14285C9.14286 8.82726 8.88702 8.57143 8.57143 8.57143Z" fill="#8657AA"/>
<path d="M8.57143 12H7.42857C7.11298 12 6.85714 12.2558 6.85714 12.5714V13.7143C6.85714 14.0299 7.11298 14.2857 7.42857 14.2857H8.57143C8.88702 14.2857 9.14286 14.0299 9.14286 13.7143V12.5714C9.14286 12.2558 8.88702 12 8.57143 12Z" fill="#8657AA"/>
<path d="M12 5.14285H10.8571C10.5416 5.14285 10.2857 5.39869 10.2857 5.71428V6.85714C10.2857 7.17273 10.5416 7.42857 10.8571 7.42857H12C12.3156 7.42857 12.5714 7.17273 12.5714 6.85714V5.71428C12.5714 5.39869 12.3156 5.14285 12 5.14285Z" fill="#C63C66"/>
<path d="M12 8.57143H10.8571C10.5416 8.57143 10.2857 8.82726 10.2857 9.14285V10.2857C10.2857 10.6013 10.5416 10.8571 10.8571 10.8571H12C12.3156 10.8571 12.5714 10.6013 12.5714 10.2857V9.14285C12.5714 8.82726 12.3156 8.57143 12 8.57143Z" fill="#C63C66"/>
<path d="M12 12H10.8571C10.5416 12 10.2857 12.2558 10.2857 12.5714V13.7143C10.2857 14.0299 10.5416 14.2857 10.8571 14.2857H12C12.3156 14.2857 12.5714 14.0299 12.5714 13.7143V12.5714C12.5714 12.2558 12.3156 12 12 12Z" fill="#C63C66"/>
<path d="M15.4286 1.71428H14.2857C13.9701 1.71428 13.7143 1.97012 13.7143 2.28571V3.42856C13.7143 3.74416 13.9701 3.99999 14.2857 3.99999H15.4286C15.7442 3.99999 16 3.74416 16 3.42856V2.28571C16 1.97012 15.7442 1.71428 15.4286 1.71428Z" fill="#E24747"/>
<path d="M15.4286 5.14285H14.2857C13.9701 5.14285 13.7143 5.39869 13.7143 5.71428V6.85714C13.7143 7.17273 13.9701 7.42857 14.2857 7.42857H15.4286C15.7442 7.42857 16 7.17273 16 6.85714V5.71428C16 5.39869 15.7442 5.14285 15.4286 5.14285Z" fill="#E24747"/>
<path d="M15.4286 8.57143H14.2857C13.9701 8.57143 13.7143 8.82726 13.7143 9.14285V10.2857C13.7143 10.6013 13.9701 10.8571 14.2857 10.8571H15.4286C15.7442 10.8571 16 10.6013 16 10.2857V9.14285C16 8.82726 15.7442 8.57143 15.4286 8.57143Z" fill="#E24747"/>
<path d="M15.4286 12H14.2857C13.9701 12 13.7143 12.2558 13.7143 12.5714V13.7143C13.7143 14.0299 13.9701 14.2857 14.2857 14.2857H15.4286C15.7442 14.2857 16 14.0299 16 13.7143V12.5714C16 12.2558 15.7442 12 15.4286 12Z" fill="#E24747"/>
</svg>
