<?xml version="1.0" encoding="UTF-8"?>
<svg id="Layer_2" data-name="Layer 2" xmlns="http://www.w3.org/2000/svg" viewBox="0 0 94.29 218">
  <defs>
    <style>
      .cls-1 {
        fill: #8fa5c0;
      }

      .cls-2 {
        fill: #7088a4;
      }

      .cls-3 {
        fill: #eef1f5;
      }

      .cls-4 {
        fill: #ccd5e2;
      }

      .cls-5 {
        fill: #193e4f;
      }

      .cls-6 {
        fill: #313a44;
      }
    </style>
  </defs>
  <g id="Layer_1-2" data-name="Layer 1">
    <g>
      <path class="cls-4" d="M86.79,5.17l-6.37-3.48c-.44-.29-.91-.55-1.39-.77l-.04-.02h0c-2.78-1.25-6.14-1.29-9.16.44L10.19,35.42C3.89,39.02,0,45.73,0,52.98v148.84c0,3.74,1.95,6.8,4.72,8.55h0s.07.04.07.04c.32.2.66.38,1,.55l7.07,3.92-1.77-2.96h-.02c1.37-.14,2.75-.56,4.07-1.31l59.63-34.08c6.3-3.6,10.19-10.3,10.19-17.56V10.13c0-1.69-.4-3.24-1.09-4.6l2.92-.35Z"/>
      <g>
        <path class="cls-3" d="M17.46,214c-3.91,0-8.13-3.11-8.13-8.13V57.03c0-6.52,3.52-12.59,9.18-15.83L78.15,7.13c1.26-.72,2.61-1.08,4.01-1.08,3.91,0,8.13,3.11,8.13,8.13v148.84c0,6.53-3.52,12.59-9.18,15.83l-59.63,34.08c-1.26.72-2.61,1.08-4.01,1.08Z"/>
        <path class="cls-1" d="M82.16,8.04c2.95,0,6.13,2.34,6.13,6.13v148.84c0,5.81-3.13,11.21-8.18,14.09l-59.63,34.08c-.95.54-1.97.82-3.02.82-2.95,0-6.13-2.34-6.13-6.13V57.03c0-5.81,3.13-11.21,8.18-14.09L79.14,8.86c.95-.54,1.97-.82,3.02-.82M82.16,4.04c-1.67,0-3.38.42-5,1.35L17.52,39.47c-6.3,3.6-10.19,10.3-10.19,17.56v148.84c0,5.9,4.84,10.13,10.13,10.13,1.67,0,3.38-.42,5-1.35l59.63-34.08c6.3-3.6,10.19-10.3,10.19-17.56V14.17c0-5.9-4.84-10.13-10.13-10.13h0Z"/>
      </g>
      <path class="cls-6" d="M82.16,5.04c5.03,0,9.13,4.1,9.13,9.13v148.84c0,6.88-3.71,13.28-9.69,16.69l-59.63,34.08c-1.41.81-2.93,1.22-4.51,1.22-5.03,0-9.13-4.1-9.13-9.13V57.03c0-6.88,3.71-13.28,9.69-16.69L77.66,6.26c1.41-.81,2.93-1.22,4.51-1.22M82.16,4.04c-1.67,0-3.38.42-5,1.35L17.52,39.47c-6.3,3.6-10.19,10.3-10.19,17.56v148.84c0,5.9,4.84,10.13,10.13,10.13,1.67,0,3.38-.42,5-1.35l59.63-34.08c6.3-3.6,10.19-10.3,10.19-17.56V14.17c0-5.9-4.84-10.13-10.13-10.13h0Z"/>
      <path class="cls-2" d="M44.01,39.91h0c0-1.58.84-3.03,2.21-3.81l11.14-6.37c1.47-.84,3.3.22,3.3,1.91h0c0,1.58-.84,3.03-2.21,3.81l-11.14,6.37c-1.47.84-3.3-.22-3.3-1.91Z"/>
      <path class="cls-2" d="M39.93,195.76l31.49-18c.75-.43.75-1.51,0-1.94h0c-.34-.2-.76-.2-1.11,0l-31.49,18c-.75.43-.75,1.51,0,1.94h0c.34.2.76.2,1.11,0Z"/>
      <path class="cls-6" d="M74.82,1h0c1.29,0,2.56.27,3.76.82,0,0,0,0,.01,0,0,0,.02,0,.03.01.45.2.87.44,1.25.69.02.02.05.03.07.04l6.29,3.44s.06.04.09.05c3.06,1.57,4.96,4.68,4.96,8.11v148.84c0,6.88-3.71,13.28-9.69,16.69l-59.63,34.08c-1.41.81-2.93,1.22-4.51,1.22-1.42,0-2.86-.35-4.15-1.01-.02,0-.03-.02-.05-.02l-.04-.02-.08-.04-6.87-3.81s-.04-.02-.06-.03c-.31-.15-.61-.31-.91-.5-.01,0-.02-.01-.03-.02,0,0-.02-.01-.03-.02-2.66-1.68-4.25-4.56-4.25-7.7V52.98c0-6.88,3.71-13.28,9.69-16.69L70.32,2.21c1.41-.81,2.92-1.21,4.5-1.21M74.82,0C73.15,0,71.44.42,69.83,1.35L10.19,35.42C3.89,39.02,0,45.73,0,52.98v148.84c0,3.74,1.95,6.8,4.72,8.55h0s.07.04.07.04c.32.2.66.38,1,.55l6.87,3.81c.05.03.1.06.15.08l.05.03h0c1.41.71,2.99,1.12,4.61,1.12s3.38-.42,5-1.35l59.63-34.08c6.3-3.6,10.19-10.3,10.19-17.56V14.17c0-4.08-2.32-7.36-5.5-9h0s-6.37-3.48-6.37-3.48c-.44-.29-.91-.55-1.39-.77l-.04-.02h0C77.69.32,76.27,0,74.82,0h0Z"/>
      <g>
        <path class="cls-5" d="M43.48,114.56c.57-5.06.86-7.59,1.43-12.64-.61.35-.92.52-1.53.87-.72.41-1.64.41-1.91-.4-.09-.28-.29-1.28.89-3.05.42-.63.69-1.21.75-1.57.05-.37-.01-.63-.2-.76-.26-.18-.77-.07-1.42.3-1.1.63-1.87,1.89-1.94,2.53-.05.47.21.68.43.78.68.28.85,1.15.42,2.3-.43,1.19-1.38,2.34-2.39,2.93-.63.36-.94.54-1.56.89-.13,1.23-2.26,20.1-2.42,21.58,3.38-1.93,5.07-2.9,8.44-4.83.08-.65.47-4.22,1-8.94h0Z"/>
        <path class="cls-5" d="M33.58,132.68c1.38-.79,2.08-1.19,3.46-1.98,1.48-.84,1.83-.07,1.73.89-.09.77-.47,1.53-1.12,2.26.82-.06,1.15.39,1.03,1.47-.15,1.35-.99,2.77-2.08,3.39-1.58.9-2.36,1.35-3.94,2.25.37-3.31.55-4.97.92-8.29ZM35.87,134.59c.67-.38.99-1.03,1.05-1.62.07-.63-.14-.93-.81-.54-.24.14-.36.2-.6.34-.1.87-.14,1.3-.24,2.17.24-.14.36-.2.6-.34h0ZM35.5,138.14c.69-.4,1.1-1,1.19-1.81.08-.7-.21-.92-.88-.54-.27.15-.4.23-.67.38-.1.93-.16,1.39-.26,2.32.25-.14.37-.21.62-.35h0Z"/>
        <path class="cls-5" d="M43.54,134.81c-.9.6-1.34.72-1.55.33-.48.66-1.01,1.16-1.57,1.48-1.02.58-1.38.09-1.28-.73.04-.39.21-.84.47-1.29.56-.96,1.95-1.84,2.5-2.63.04-.56-.12-.67-.63-.38-.6.34-1.1.88-1.95,2.14.08-.75.12-1.13.21-1.88.74-1.12,1.45-1.85,2.28-2.33,1.05-.6,1.99-.57,1.81,1.04-.08.73-.12,1.09-.21,1.82-.08.64-.05.81.46.54-.21.76-.31,1.13-.52,1.89h0ZM41.97,133.02c-.48.67-1.37,1.11-1.47,1.99-.04.41.14.59.43.42.29-.17.63-.52.91-.93-.02-.13-.01-.28.02-.57.04-.36.06-.55.1-.91h0Z"/>
        <path class="cls-5" d="M45.22,127.78c.72-.41,1.08-.62,1.8-1.03-.04.34-.06.5-.1.84.58-.97,1.01-1.46,1.57-1.78,1.01-.58,1.48-.03,1.31,1.38-.19,1.69-.28,2.54-.47,4.23-.72.41-1.08.62-1.8,1.03.16-1.4.23-2.1.39-3.51.08-.64-.07-.84-.41-.65-.28.16-.54.51-.79,1.09-.16,1.5-.25,2.25-.41,3.75-.72.41-1.08.62-1.8,1.03.28-2.55.42-3.83.71-6.39Z"/>
        <path class="cls-5" d="M51.22,122.6c.72-.41,1.08-.62,1.8-1.03-.18,1.63-.27,2.44-.46,4.07.69-1.22,1.04-1.83,1.73-3.05.89-.51,1.34-.76,2.23-1.27-.89,1.53-1.33,2.29-2.21,3.82.71.97,1.07,1.45,1.78,2.42-.91.52-1.36.78-2.27,1.3-.55-.8-.82-1.2-1.37-2,0,0-.01,0-.02.01-.13,1.18-.2,1.77-.33,2.96-.72.41-1.08.62-1.8,1.03.37-3.3.55-4.96.92-8.26Z"/>
        <path class="cls-5" d="M57.59,118.96c.83-.47,1.24-.71,2.07-1.18-.36,3.31-.55,4.96-.91,8.27-.83.47-1.24.71-2.07,1.18.36-3.31.55-4.96.91-8.27Z"/>
        <path class="cls-5" d="M60.68,117.2c1.19-.68,1.78-1.02,2.96-1.69,2.29-1.31,2.95.49,2.74,2.42-.21,1.88-1.27,4.49-3.28,5.64-1.34.76-2.01,1.15-3.34,1.91.37-3.31.55-4.96.92-8.27h0ZM62.6,122c1.01-.58,1.56-1.55,1.73-3.02.12-1.09-.12-1.96-1.24-1.33-.22.13-.33.19-.55.32-.19,1.74-.29,2.6-.48,4.34.22-.12.33-.19.54-.31h0Z"/>
        <path class="cls-5" d="M54.84,85.92c-3.45,1.97-5.18,2.96-8.63,4.93-.46,4.09-.69,6.13-1.15,10.22.59-.33.88-.5,1.47-.84.8-.46,1.56-1.38,1.89-2.26.11-.29.15-.51.15-.7,0-.4-.21-.58-.41-.66-.56-.23-.68-.75-.68-1.16,0-.09,0-.16.01-.23.12-1.08,1.16-2.77,2.54-3.55.82-.47,1.45-.58,1.83-.32.34.22.47.73.37,1.4-.12.79-.67,1.71-.99,2.18-.84,1.25-.73,1.85-.67,2.02.17.5.84.5,1.35.21.89-.51,1.34-.77,2.24-1.28h0c3.04-1.69,4.67-.79,4.16,3.76-.48,4.24-2.8,7.27-5.57,8.88-.44,3.91-.66,5.87-1.1,9.78.65-.37.97-.55,1.62-.92,6.83-3.9,12.41-12.83,13.5-22.53,1.36-12.03-4.1-13.4-11.92-8.94Z"/>
      </g>
    </g>
  </g>
</svg>