<?xml version="1.0" encoding="UTF-8"?><svg xmlns="http://www.w3.org/2000/svg" viewBox="0 0 32 32"><defs><style>.bounding-box{fill:none;}.resizer{fill:#7088A4;}</style></defs><g id="icons"><g id="resizer"><rect id="bounding-box" class="bounding-box" width="32" height="32"/><path id="resizer-2" class="resizer" d="M2,20c.88,0,1.36,0,1.68-.32,.32-.32,.32-.81,.32-1.68s0-1.36-.32-1.68c-.32-.32-.81-.32-1.68-.32s-1.36,0-1.68,.32c-.32,.32-.32,.81-.32,1.68s0,1.36,.32,1.68c.32,.32,.81,.32,1.68,.32Zm8,0c.88,0,1.36,0,1.68-.32,.32-.32,.32-.81,.32-1.68s0-1.36-.32-1.68c-.32-.32-.81-.32-1.68-.32s-1.36,0-1.68,.32c-.32,.32-.32,.81-.32,1.68s0,1.36,.32,1.68c.32,.32,.81,.32,1.68,.32Zm8,0c.88,0,1.36,0,1.68-.32,.32-.32,.32-.81,.32-1.68s0-1.36-.32-1.68c-.32-.32-.81-.32-1.68-.32s-1.36,0-1.68,.32c-.32,.32-.32,.81-.32,1.68s0,1.36,.32,1.68c.32,.32,.81,.32,1.68,.32Zm0-8c.88,0,1.36,0,1.68-.32,.32-.32,.32-.81,.32-1.68s0-1.36-.32-1.68c-.32-.32-.81-.32-1.68-.32s-1.36,0-1.68,.32c-.32,.32-.32,.81-.32,1.68s0,1.36,.32,1.68c.32,.32,.81,.32,1.68,.32Zm0-8c.88,0,1.36,0,1.68-.32,.32-.32,.32-.81,.32-1.68s0-1.36-.32-1.68c-.32-.32-.81-.32-1.68-.32s-1.36,0-1.68,.32c-.32,.32-.32,.81-.32,1.68s0,1.36,.32,1.68c.32,.32,.81,.32,1.68,.32ZM10,12c.88,0,1.36,0,1.68-.32,.32-.32,.32-.81,.32-1.68s0-1.36-.32-1.68c-.32-.32-.81-.32-1.68-.32s-1.36,0-1.68,.32c-.32,.32-.32,.81-.32,1.68s0,1.36,.32,1.68c.32,.32,.81,.32,1.68,.32Z"/></g></g></svg>