<?xml version="1.0" encoding="UTF-8"?>
<svg id="Layer_2" data-name="Layer 2" xmlns="http://www.w3.org/2000/svg" viewBox="0 0 395.99 200">
  <defs>
    <style>
      .cls-1 {
        fill: #3d58b9;
      }

      .cls-2 {
        fill: #27e893;
      }

      .cls-3 {
        fill: none;
      }

      .cls-4 {
        fill: #38e0d8;
      }

      .cls-5 {
        fill: #55c1ed;
      }

      .cls-6 {
        fill: #313a44;
      }

      .cls-7 {
        fill: #1668e0;
      }
    </style>
  </defs>
  <g id="Layer_1-2" data-name="Layer 1">
    <g id="sa">
      <g id="sa-squircles">
        <rect class="cls-1" x="118.86" width="22.82" height="22.82" rx="5.73" ry="5.73"/>
        <rect class="cls-1" x="118.86" y="33.97" width="22.82" height="22.82" rx="5.73" ry="5.73"/>
        <rect class="cls-1" x="118.86" y="67.93" width="22.82" height="22.82" rx="5.73" ry="5.73"/>
        <rect class="cls-1" x="118.86" y="101.9" width="22.82" height="22.82" rx="5.73" ry="5.73"/>
        <rect class="cls-7" x="152.77" y="33.97" width="22.82" height="22.82" rx="5.73" ry="5.73"/>
        <rect class="cls-7" x="152.77" y="67.93" width="22.82" height="22.82" rx="5.73" ry="5.73"/>
        <rect class="cls-7" x="152.77" y="101.9" width="22.82" height="22.82" rx="5.73" ry="5.73"/>
        <rect class="cls-5" x="186.63" y="67.93" width="22.82" height="22.82" rx="5.73" ry="5.73"/>
        <rect class="cls-5" x="186.63" y="101.9" width="22.82" height="22.82" rx="5.73" ry="5.73"/>
        <rect class="cls-4" x="220.55" y="33.97" width="22.82" height="22.82" rx="5.73" ry="5.73"/>
        <rect class="cls-4" x="220.55" y="67.93" width="22.82" height="22.82" rx="5.73" ry="5.73"/>
        <rect class="cls-4" x="220.55" y="101.9" width="22.82" height="22.82" rx="5.73" ry="5.73"/>
        <rect class="cls-2" x="254.46" width="22.82" height="22.82" rx="5.73" ry="5.73"/>
        <rect class="cls-2" x="254.46" y="33.97" width="22.82" height="22.82" rx="5.73" ry="5.73"/>
        <rect class="cls-2" x="254.46" y="67.93" width="22.82" height="22.82" rx="5.73" ry="5.73"/>
        <rect class="cls-2" x="254.46" y="101.9" width="22.82" height="22.82" rx="5.73" ry="5.73"/>
      </g>
      <g id="sa-text">
        <g>
          <g>
            <path class="cls-6" d="M36.95,175.21c9.66,2.1,14.12,5.63,14.12,12.34,0,7.49-6.21,12.34-14.82,12.34-6.87,0-12.53-2.29-17.73-6.95l3.03-3.61c4.54,4.07,8.85,6.13,14.86,6.13s9.66-3.03,9.66-7.45c0-4.07-2.17-6.36-11.29-8.3-9.97-2.17-14.55-5.39-14.55-12.57s6.01-11.91,14.24-11.91c6.32,0,10.83,1.78,15.25,5.32l-2.83,3.76c-4.04-3.3-8.07-4.69-12.53-4.69-5.63,0-9.23,3.1-9.23,7.06s2.21,6.44,11.76,8.5l.08.04Z"/>
            <path class="cls-6" d="M77.46,200c-13.19,0-22.04-10.36-22.04-22.35s9-22.5,22.19-22.5,22.08,10.36,22.08,22.35-9,22.5-22.19,22.5h-.04ZM77.46,159.65c-9.93,0-16.99,7.92-16.99,17.85s7.18,17.96,17.11,17.96,16.99-7.92,16.99-17.85-7.18-17.96-17.11-17.96Z"/>
            <path class="cls-6" d="M137.45,160.38h-26.27v15.48h23.47v4.46h-23.47v18.9h-4.89v-43.38h31.16v4.54Z"/>
            <path class="cls-6" d="M163.33,199.26h-4.97v-38.84h-14.55v-4.54h34.07v4.54h-14.55v38.84Z"/>
            <path class="cls-6" d="M220.63,199.26h-5.28l-5.08-11.45h-23.59l-5.16,11.45h-5.01l19.75-43.69h4.58l19.75,43.69h.04ZM198.52,161.28l-9.89,22.12h19.75s-9.86-22.12-9.86-22.12Z"/>
            <path class="cls-6" d="M243.02,199.26h-15.05v-43.38h15.05c13.62,0,23.05,9.35,23.05,21.61s-9.43,21.77-23.05,21.77ZM243.02,160.38h-10.17v34.34h10.17c10.98,0,17.96-7.45,17.96-17.11s-6.98-17.23-17.96-17.23Z"/>
            <path class="cls-6" d="M294.74,187.35h-.23l-15.79-23.16v35.08h-4.77v-43.38h4.97l15.79,23.67,15.79-23.67h4.97v43.38h-4.89v-35.11l-15.79,23.24-.04-.04Z"/>
            <path class="cls-6" d="M330.56,155.88v43.38h-4.89v-43.38s4.89,0,4.89,0Z"/>
            <path class="cls-6" d="M372.69,155.88h4.77v43.38h-3.92l-28.01-35.58v35.58h-4.77v-43.38h4.58l27.32,34.77v-34.77h.04Z"/>
          </g>
          <path class="cls-6" d="M385.17,149.68c0-.78.15-1.47.42-2.13.27-.66.66-1.24,1.16-1.71.5-.47,1.08-.85,1.74-1.12.66-.27,1.35-.43,2.09-.43s1.43.16,2.09.43c.66.27,1.24.66,1.74,1.12.5.47.89,1.05,1.16,1.71.27.66.42,1.4.42,2.13s-.15,1.51-.42,2.17c-.27.66-.66,1.24-1.16,1.71-.5.47-1.08.85-1.74,1.12s-1.35.43-2.09.43-1.43-.16-2.09-.43-1.24-.66-1.74-1.12c-.5-.47-.89-1.05-1.16-1.71-.27-.66-.42-1.4-.42-2.17ZM386.1,149.68c0,.66.12,1.28.35,1.82.23.58.54,1.05.93,1.47s.85.74,1.39.97c.54.23,1.12.35,1.74.35s1.2-.12,1.74-.35c.54-.23,1-.58,1.39-.97.39-.43.73-.89.97-1.47.23-.58.35-1.16.35-1.82s-.12-1.24-.35-1.82c-.23-.58-.54-1.05-.97-1.47-.39-.43-.89-.74-1.39-.97-.54-.23-1.12-.35-1.74-.35s-1.2.12-1.74.35-1,.58-1.39.97c-.39.39-.7.89-.93,1.47-.23.58-.35,1.16-.35,1.82ZM388.5,146.5h2.39c1.47,0,2.2.62,2.2,1.82,0,.58-.15,1.01-.46,1.24-.31.27-.73.43-1.2.47l1.82,2.79h-1.04l-1.7-2.71h-1.04v2.71h-.97v-6.32ZM389.46,149.33h1.62c.19,0,.39-.04.54-.12.15-.08.27-.16.39-.31s.15-.35.15-.58-.04-.39-.12-.5-.19-.23-.35-.31c-.15-.08-.27-.12-.46-.12h-1.78v2.05-.12Z"/>
          <rect class="cls-3" y="144.29" width="18.52" height="11.6"/>
        </g>
      </g>
    </g>
  </g>
</svg>