<svg xmlns="http://www.w3.org/2000/svg" id="Lager_1" viewBox="0 0 133.84 24.16"><defs><style> .cls-1 { fill: #3d58b9; } .cls-2 { fill: #27e893; } .cls-3 { fill: #313a44; } .cls-4 { fill: #38e0d8; } .cls-5 { fill: #55c1ed; } .cls-6 { fill: #1668e0; } </style></defs><rect class="cls-1" x="0" width="4.42" height="4.42" rx="1.11" ry="1.11"/><rect class="cls-1" x="0" y="6.58" width="4.42" height="4.42" rx="1.11" ry="1.11"/><rect class="cls-1" y="13.16" width="4.42" height="4.42" rx="1.11" ry="1.11"/><rect class="cls-1" y="19.74" width="4.42" height="4.42" rx="1.11" ry="1.11"/><rect class="cls-6" x="6.57" y="6.58" width="4.42" height="4.42" rx="1.11" ry="1.11"/><rect class="cls-6" x="6.57" y="13.16" width="4.42" height="4.42" rx="1.11" ry="1.11"/><rect class="cls-6" x="6.57" y="19.74" width="4.42" height="4.42" rx="1.11" ry="1.11"/><rect class="cls-5" x="13.13" y="13.16" width="4.42" height="4.42" rx="1.11" ry="1.11"/><rect class="cls-5" x="13.13" y="19.74" width="4.42" height="4.42" rx="1.11" ry="1.11"/><rect class="cls-4" x="19.7" y="6.58" width="4.42" height="4.42" rx="1.11" ry="1.11"/><rect class="cls-4" x="19.7" y="13.16" width="4.42" height="4.42" rx="1.11" ry="1.11"/><rect class="cls-4" x="19.7" y="19.74" width="4.42" height="4.42" rx="1.11" ry="1.11"/><rect class="cls-2" x="26.27" width="4.42" height="4.42" rx="1.11" ry="1.11"/><rect class="cls-2" x="26.27" y="6.58" width="4.42" height="4.42" rx="1.11" ry="1.11"/><rect class="cls-2" x="26.27" y="13.16" width="4.42" height="4.42" rx="1.11" ry="1.11"/><rect class="cls-2" x="26.27" y="19.74" width="4.42" height="4.42" rx="1.11" ry="1.11"/><g><g><path class="cls-3" d="M41.31,17.77c2.49.54,3.64,1.45,3.64,3.18,0,1.93-1.6,3.18-3.82,3.18-1.77,0-3.23-.59-4.57-1.79l.78-.93c1.17,1.05,2.28,1.58,3.83,1.58s2.49-.78,2.49-1.92c0-1.05-.56-1.64-2.91-2.14-2.57-.56-3.75-1.39-3.75-3.24s1.55-3.07,3.67-3.07c1.63,0,2.79.46,3.93,1.37l-.73.97c-1.04-.85-2.08-1.21-3.23-1.21-1.45,0-2.38.8-2.38,1.82s.57,1.66,3.03,2.19Z"/><path class="cls-3" d="M51.75,24.16c-3.4,0-5.68-2.67-5.68-5.76s2.32-5.8,5.72-5.8,5.69,2.67,5.69,5.76-2.32,5.8-5.72,5.8ZM51.75,13.76c-2.56,0-4.38,2.04-4.38,4.6s1.85,4.63,4.41,4.63,4.38-2.04,4.38-4.6-1.85-4.63-4.41-4.63Z"/><path class="cls-3" d="M67.21,13.95h-6.77v3.99h6.05v1.15h-6.05v4.87h-1.26v-11.18h8.03v1.17Z"/><path class="cls-3" d="M73.88,23.97h-1.28v-10.01h-3.75v-1.17h8.78v1.17h-3.75v10.01Z"/><path class="cls-3" d="M88.65,23.97h-1.36l-1.31-2.95h-6.08l-1.33,2.95h-1.29l5.09-11.26h1.18l5.09,11.26ZM82.95,14.18l-2.55,5.7h5.09l-2.54-5.7Z"/><path class="cls-3" d="M94.42,23.97h-3.88v-11.18h3.88c3.51,0,5.94,2.41,5.94,5.57s-2.43,5.61-5.94,5.61ZM94.42,13.95h-2.62v8.85h2.62c2.83,0,4.63-1.92,4.63-4.41s-1.8-4.44-4.63-4.44Z"/><path class="cls-3" d="M107.75,20.9h-.06l-4.07-5.97v9.04h-1.23v-11.18h1.28l4.07,6.1,4.07-6.1h1.28v11.18h-1.26v-9.05l-4.07,5.99Z"/><path class="cls-3" d="M116.98,12.79v11.18h-1.26v-11.18h1.26Z"/><path class="cls-3" d="M127.84,12.79h1.23v11.18h-1.01l-7.22-9.17v9.17h-1.23v-11.18h1.18l7.04,8.96v-8.96Z"/></g><path class="cls-3" d="M131.05,11.19c0-.2.04-.38.11-.55.07-.17.17-.32.3-.44.13-.12.28-.22.45-.29s.35-.11.54-.11.37.04.54.11c.17.07.32.17.45.29.13.12.23.27.3.44.07.17.11.36.11.55s-.04.39-.11.56c-.07.17-.17.32-.3.44-.13.12-.28.22-.45.29-.17.07-.35.11-.54.11s-.37-.04-.54-.11-.32-.17-.45-.29c-.13-.12-.23-.27-.3-.44-.07-.17-.11-.36-.11-.56ZM131.29,11.19c0,.17.03.33.09.47.06.15.14.27.24.38s.22.19.36.25c.14.06.29.09.45.09s.31-.03.45-.09c.14-.06.26-.15.36-.25.1-.11.19-.23.25-.38.06-.15.09-.3.09-.47s-.03-.32-.09-.47c-.06-.15-.14-.27-.25-.38-.1-.11-.23-.19-.36-.25-.14-.06-.29-.09-.45-.09s-.31.03-.45.09c-.14.06-.26.15-.36.25s-.18.23-.24.38c-.06.15-.09.3-.09.47ZM131.91,10.37h.62c.38,0,.57.16.57.47,0,.15-.04.26-.12.32-.08.07-.19.11-.31.12l.47.72h-.27l-.44-.7h-.27v.7h-.25v-1.63ZM132.16,11.1h.26c.06,0,.11,0,.16,0s.1-.01.14-.03c.04-.02.07-.04.1-.08.03-.04.04-.09.04-.15,0-.06-.01-.1-.03-.13s-.05-.06-.09-.08c-.04-.02-.07-.03-.12-.03s-.09,0-.13,0h-.33v.53Z"/></g><script xmlns=""/></svg>