<?xml version="1.0" encoding="UTF-8"?>
<svg id="Layer_2" data-name="Layer 2" xmlns="http://www.w3.org/2000/svg" viewBox="0 0 525 525">
  <defs>
    <style>
      .cls-1 {
        fill: #fc0;
      }

      .cls-2 {
        fill: #ffe680;
      }

      .cls-3 {
        fill: #fd5;
      }

      .cls-4 {
        fill: #ffd42a;
      }
    </style>
  </defs>
  <g id="Layer_1-2" data-name="Layer 1">
    <g>
      <path class="cls-1" d="M423.03,520.94c-6.63,4.64-15.87,5.48-23.29,1.59l-118.56-62.97c-5.84-3.11-12.26-4.66-18.68-4.67v-169.39l160.53,235.44Z"/>
      <path class="cls-1" d="M517.99,222.8l-95.33,100.76c-4.1,4.33-7.12,9.46-8.94,14.98l-151.22-53.04,259.82-90.2c.54,1.11,1,2.29,1.39,3.52,2.86,8.99.96,17.99-5.72,23.98Z"/>
      <path class="cls-3" d="M353.54,150.84l-91.04,134.66V0c8.55.03,16.14,5.02,20.9,12.99l60.64,125.32c2.34,4.83,5.58,9.07,9.5,12.53Z"/>
      <path class="cls-2" d="M522.32,195.3l-259.82,90.2,91.04-134.66c5.5,4.88,12.33,8.21,19.79,9.48l132.26,22.52c7.41.86,13.4,5.44,16.73,12.46Z"/>
      <path class="cls-3" d="M423.58,520.54c-.18.14-.36.27-.55.4l-160.53-235.44,151.22,53.04c-1.93,5.86-2.5,12.16-1.57,18.41l20.97,140.61c.95,8.99-1.91,17.98-9.54,22.98Z"/>
      <path class="cls-3" d="M101.97,520.94c6.63,4.64,15.87,5.48,23.29,1.59l118.56-62.97c5.84-3.11,12.26-4.66,18.68-4.67v-169.39l-160.53,235.44Z"/>
      <path class="cls-1" d="M7.01,222.8l95.33,100.76c4.1,4.33,7.12,9.46,8.94,14.98l151.22-53.04L2.68,195.3c-.54,1.11-1,2.29-1.39,3.52-2.86,8.99-.96,17.99,5.72,23.98Z"/>
      <path class="cls-1" d="M171.46,150.84l91.04,134.66V0c-8.55.03-16.14,5.02-20.9,12.99l-60.64,125.32c-2.34,4.83-5.58,9.07-9.5,12.53Z"/>
      <path class="cls-2" d="M2.68,195.3l259.82,90.2-91.04-134.66c-5.5,4.88-12.33,8.21-19.79,9.48l-132.26,22.52c-7.41.86-13.4,5.44-16.73,12.46Z"/>
      <path class="cls-4" d="M101.42,520.54c.18.14.36.27.55.4l160.53-235.44-151.22,53.04c1.93,5.86,2.5,12.16,1.57,18.41l-20.97,140.61c-.95,8.99,1.91,17.98,9.54,22.98Z"/>
    </g>
  </g>
</svg>