<svg width="640" height="640" viewBox="0 0 640 640" fill="none" xmlns="http://www.w3.org/2000/svg">
<path opacity="0.4" d="M411 368C437.51 368 459 346.51 459 320C459 293.49 437.51 272 411 272C384.49 272 363 293.49 363 320C363 346.51 384.49 368 411 368Z" fill="#7088A4"/>
<path opacity="0.2" d="M592 368C618.51 368 640 346.51 640 320C640 293.49 618.51 272 592 272C565.49 272 544 293.49 544 320C544 346.51 565.49 368 592 368Z" fill="#7088A4"/>
<path opacity="0.6" d="M229 368C255.51 368 277 346.51 277 320C277 293.49 255.51 272 229 272C202.49 272 181 293.49 181 320C181 346.51 202.49 368 229 368Z" fill="#7088A4"/>
<path d="M48 368C74.5097 368 96 346.51 96 320C96 293.49 74.5097 272 48 272C21.4903 272 0 293.49 0 320C0 346.51 21.4903 368 48 368Z" fill="#7088A4"/>
</svg>
