<svg xmlns="http://www.w3.org/2000/svg" viewBox="0 0 400 378.22"><defs><style>.saBankID{fill:#193e4f}</style></defs><path class="saBankID" d="m126.17 197.26 16.7-105.28h-17.79c-8.4 0-19.1-4.7-22.3-13.3-1-2.9-3.4-12.89 10.4-22.69 4.9-3.4 8.1-7.2 8.7-10.1a7.81 7.81 0 0 0-2.3-7.7c-3-2.9-9-4.6-16.6-4.6-12.8 0-21.8 7.3-22.7 12.7-.6 3.9 2.4 7.1 5.1 9.1 8 5.9 9.9 14.59 4.9 22.69-5.1 8.4-16.09 13.8-27.79 13.9h-18.2c-1.5 10.3-26.33 167.47-28.19 179.86h98.48c.8-5.5 5.4-35.19 11.59-74.58ZM10.8 308.24h40.39c17.2 0 21.4 8.69 20.1 16.69-1 6.5-5.4 11.3-13 14.4 9.6 3.7 13.4 9.4 12 18.4-1.8 11.33-11.5 19.59-24.33 19.59h-46Zm26.69 28.59c7.8 0 11.5-4.2 12.3-9.1.8-5.3-1.6-9-9.5-9h-7l-2.8 18.1Zm-4.3 29.79c8.1 0 12.8-3.3 13.9-10 .9-5.8-2.4-9.2-10.3-9.2h-7.83l-3 19.39h7.19ZM126.77 377.92c-10.49.8-15.59-.4-18.09-4.9a35.05 35.05 0 0 1-18.4 5.2c-11.9 0-16.09-6.2-14.89-13a15.29 15.29 0 0 1 5.39-9.09c6.6-5.7 22.8-6.5 29.1-10.8.5-4.8-1.4-6.6-7.3-6.6-7 0-12.8 2.3-22.8 9.1l2.4-15.7c8.6-6.2 17-9.1 26.6-9.1 12.3 0 23.19 5.1 21.09 18.5l-2.4 15.2c-.9 5.29-.6 7 5.3 7.09Zm-18.19-24c-5.6 3.5-15.9 2.9-17.1 10.29a4.85 4.85 0 0 0 5.1 5.9 19.71 19.71 0 0 0 10.6-3.7c-.3-1.3-.1-2.5.3-4.9ZM146.47 323.83h21l-1.1 7c6.7-5.7 11.79-7.8 18.39-7.8 11.8 0 17.2 7.2 15.3 19l-5.4 35.29h-21l4.59-29.19c.9-5.3-.8-7.8-4.79-7.8-3.3 0-6.3 1.8-9.2 5.7l-4.8 31.29h-21ZM216.36 308.24h21l-5.3 33.89 20.1-18.4h25.89l-25.79 22.8 20.8 30.59h-26.5l-15.9-24.79h-.3l-3.81 24.73h-21ZM290.74 308.24h24.22l-10.6 69h-24.2ZM326.63 308.24h34.6c26.69 0 34.39 19.39 31.89 35.39-2.4 15.7-14.8 33.49-38.19 33.49h-38.97Zm22.4 52.59c11.8 0 18.2-5.8 20.1-18.1 1.4-9.1-1.4-18.1-14.4-18.1h-6.5l-5.6 36.2ZM258.55 0H157.96l-13.4 85.18h17.1c9.4 0 18.19-4.3 22-10.5a9.86 9.86 0 0 0 1.8-5.4c0-3.49-2.4-6.19-4.8-8-6.59-4.9-8-10.1-8-13.8a12.12 12.12 0 0 1 .1-2c1.4-9 13.49-18.7 29.59-18.7 9.6 0 17 2.3 21.4 6.5a15.09 15.09 0 0 1 4.29 14.3c-1.4 6.5-7.79 11.8-11.49 14.4-9.7 6.79-8.5 12.79-7.8 14.59 2 5.3 9.7 8.7 15.7 8.7h26.09v.1c35.39.3 54.39 16.6 48.49 54.59-5.6 35.29-32.69 50.49-64.89 50.79l-12.88 81.31h18.89c79.59 0 144.67-51.09 157.47-131.87C413.32 39.99 349.63 0 258.55 0Z"/></svg>