<?xml version="1.0" encoding="UTF-8"?>
<svg id="Layer_1" xmlns="http://www.w3.org/2000/svg" version="1.1" viewBox="0 0 32 32">
  <!-- Generator: Adobe Illustrator 29.0.0, SVG Export Plug-In . SVG Version: 2.1.0 Build 186)  -->
  <defs>
    <style>
      .st0 {
        fill: #7088a4;
      }

      .st1 {
        fill: none;
      }
    </style>
  </defs>
  <g id="icons">
    <g id="resizer">
      <rect id="bounding-box" class="st1" x="0" width="32" height="32"/>
      <path id="resizer-2" class="st0" d="M30,20c-.9,0-1.4,0-1.7-.3-.3-.3-.3-.8-.3-1.7s0-1.4.3-1.7.8-.3,1.7-.3,1.4,0,1.7.3c.3.3.3.8.3,1.7s0,1.4-.3,1.7-.8.3-1.7.3ZM22,20c-.9,0-1.4,0-1.7-.3-.3-.3-.3-.8-.3-1.7s0-1.4.3-1.7.8-.3,1.7-.3,1.4,0,1.7.3c.3.3.3.8.3,1.7s0,1.4-.3,1.7c-.3.3-.8.3-1.7.3ZM14,20c-.9,0-1.4,0-1.7-.3s-.3-.8-.3-1.7,0-1.4.3-1.7.8-.3,1.7-.3,1.4,0,1.7.3.3.8.3,1.7,0,1.4-.3,1.7-.8.3-1.7.3ZM14,12c-.9,0-1.4,0-1.7-.3s-.3-.8-.3-1.7,0-1.4.3-1.7c.3-.3.8-.3,1.7-.3s1.4,0,1.7.3c.3.3.3.8.3,1.7s0,1.4-.3,1.7c-.3.3-.8.3-1.7.3ZM14,4c-.9,0-1.4,0-1.7-.3s-.3-.8-.3-1.7,0-1.4.3-1.7C12.6,0,13.1,0,14,0S15.4,0,15.7.3s.3.8.3,1.7,0,1.4-.3,1.7c-.3.3-.8.3-1.7.3ZM22,12c-.9,0-1.4,0-1.7-.3-.3-.3-.3-.8-.3-1.7s0-1.4.3-1.7c.3-.3.8-.3,1.7-.3s1.4,0,1.7.3.3.8.3,1.7,0,1.4-.3,1.7c-.3.3-.8.3-1.7.3Z"/>
    </g>
  </g>
</svg>