<svg id="Layer_1" data-name="Layer 1" xmlns="http://www.w3.org/2000/svg" xmlns:xlink="http://www.w3.org/1999/xlink" viewBox="0 0 280 280"><defs><style>.cls-1{fill:none;}.cls-2{clip-path:url(#clip-path);}.cls-3{fill:#265eac;}.cls-3,.cls-4,.cls-5,.cls-6,.cls-7{fill-rule:evenodd;}.cls-4{fill:#0077be;}.cls-5{fill:#7ad0e4;}.cls-6{fill:#10cfc9;}.cls-7{fill:#27e893;}</style><clipPath id="clip-path"><rect class="cls-1" width="280" height="280"/></clipPath></defs><g id="Logo_no_name_" data-name="Logo (no name)"><g class="cls-2"><g class="cls-2"><path class="cls-3" d="M10.11,30.56H29.69A10.11,10.11,0,0,1,39.8,40.67V60.25A10.11,10.11,0,0,1,29.69,70.36H10.11A10.11,10.11,0,0,1,0,60.25V40.67A10.11,10.11,0,0,1,10.11,30.56"/><path class="cls-3" d="M10.11,90.25H29.69A10.11,10.11,0,0,1,39.8,100.36v19.58a10.11,10.11,0,0,1-10.11,10.11H10.11A10.11,10.11,0,0,1,0,119.94V100.36A10.11,10.11,0,0,1,10.11,90.25"/><path class="cls-3" d="M10.11,150H29.69A10.11,10.11,0,0,1,39.8,160.06v19.58a10.11,10.11,0,0,1-10.11,10.11H10.11A10.11,10.11,0,0,1,0,179.64V160.06A10.11,10.11,0,0,1,10.11,150"/><path class="cls-3" d="M10.11,209.64H29.69A10.11,10.11,0,0,1,39.8,219.75v19.58a10.11,10.11,0,0,1-10.11,10.11H10.11A10.11,10.11,0,0,1,0,239.33V219.75a10.11,10.11,0,0,1,10.11-10.11"/><path class="cls-4" d="M70.16,90.25H89.74a10.11,10.11,0,0,1,10.11,10.11v19.58a10.11,10.11,0,0,1-10.11,10.11H70.16a10.11,10.11,0,0,1-10.11-10.11V100.36A10.11,10.11,0,0,1,70.16,90.25"/><path class="cls-4" d="M70.16,150H89.74a10.11,10.11,0,0,1,10.11,10.11v19.58a10.11,10.11,0,0,1-10.11,10.11H70.16a10.11,10.11,0,0,1-10.11-10.11V160.06A10.11,10.11,0,0,1,70.16,150"/><path class="cls-4" d="M70.16,209.64H89.74a10.11,10.11,0,0,1,10.11,10.11v19.58a10.11,10.11,0,0,1-10.11,10.11H70.16a10.11,10.11,0,0,1-10.11-10.11V219.75a10.11,10.11,0,0,1,10.11-10.11"/><path class="cls-5" d="M130.21,150h19.58a10.11,10.11,0,0,1,10.11,10.11v19.58a10.11,10.11,0,0,1-10.11,10.11H130.21a10.11,10.11,0,0,1-10.11-10.11V160.06A10.11,10.11,0,0,1,130.21,150"/><path class="cls-5" d="M130.21,209.64h19.58a10.11,10.11,0,0,1,10.11,10.11v19.58a10.11,10.11,0,0,1-10.11,10.11H130.21a10.11,10.11,0,0,1-10.11-10.11V219.75a10.11,10.11,0,0,1,10.11-10.11"/><path class="cls-6" d="M190.26,90.25h19.58A10.11,10.11,0,0,1,220,100.36v19.58a10.11,10.11,0,0,1-10.11,10.11H190.26a10.11,10.11,0,0,1-10.11-10.11V100.36a10.11,10.11,0,0,1,10.11-10.11"/><path class="cls-6" d="M190.26,150h19.58A10.11,10.11,0,0,1,220,160.06v19.58a10.11,10.11,0,0,1-10.11,10.11H190.26a10.11,10.11,0,0,1-10.11-10.11V160.06A10.11,10.11,0,0,1,190.26,150"/><path class="cls-6" d="M190.26,209.64h19.58A10.11,10.11,0,0,1,220,219.75v19.58a10.11,10.11,0,0,1-10.11,10.11H190.26a10.11,10.11,0,0,1-10.11-10.11V219.75a10.11,10.11,0,0,1,10.11-10.11"/><path class="cls-7" d="M250.31,30.56h19.58A10.11,10.11,0,0,1,280,40.67V60.25a10.11,10.11,0,0,1-10.11,10.11H250.31A10.11,10.11,0,0,1,240.2,60.25V40.67a10.11,10.11,0,0,1,10.11-10.11"/><path class="cls-7" d="M250.31,90.25h19.58A10.11,10.11,0,0,1,280,100.36v19.58a10.11,10.11,0,0,1-10.11,10.11H250.31a10.11,10.11,0,0,1-10.11-10.11V100.36a10.11,10.11,0,0,1,10.11-10.11"/><path class="cls-7" d="M250.31,150h19.58A10.11,10.11,0,0,1,280,160.06v19.58a10.11,10.11,0,0,1-10.11,10.11H250.31a10.11,10.11,0,0,1-10.11-10.11V160.06A10.11,10.11,0,0,1,250.31,150"/><path class="cls-7" d="M250.31,209.64h19.58A10.11,10.11,0,0,1,280,219.75v19.58a10.11,10.11,0,0,1-10.11,10.11H250.31a10.11,10.11,0,0,1-10.11-10.11V219.75a10.11,10.11,0,0,1,10.11-10.11"/></g></g></g></svg>